<svg width="249" height="249" viewBox="0 0 249 249" fill="none" xmlns="http://www.w3.org/2000/svg">
<path d="M186.75 207.578C169.41 220.532 147.856 228.25 124.5 228.25C86.0979 228.25 52.5685 207.386 34.6299 176.375H77.8124" stroke="white" stroke-opacity="0.6" stroke-width="8" stroke-linecap="round" stroke-linejoin="round" stroke-dasharray="16 16"/>
<path d="M166 29.3828C202.642 45.3926 228.25 81.9556 228.25 124.5C228.25 143.397 223.198 161.115 214.37 176.375L193.4 140.062" stroke="white" stroke-opacity="0.6" stroke-width="8" stroke-linecap="round" stroke-linejoin="round" stroke-dasharray="16 16"/>
<path d="M21.2623 134.875C20.9235 131.463 20.75 128.002 20.75 124.5C20.75 67.2004 67.2004 20.75 124.5 20.75L103.531 57.0625" stroke="white" stroke-opacity="0.6" stroke-width="8" stroke-linecap="round" stroke-linejoin="round" stroke-dasharray="16 16"/>
<path d="M164.406 163.531C163.885 164.833 162.974 167.177 161.672 170.562C160.37 173.883 159.003 177.464 157.57 181.305C156.138 185.081 154.966 188.271 154.055 190.875C153.273 192.958 151.841 194 149.758 194H90.1875C89.4062 192.047 89.2109 189.898 89.6016 187.555C100.279 177.919 110.207 168.056 119.387 157.965C128.632 147.874 136.314 138.206 142.434 128.961C148.553 119.651 152.297 111.448 153.664 104.352C154.966 97.3203 154.38 91.8841 151.906 88.043C149.432 84.2018 145.526 82.2812 140.188 82.2812C130.031 82.2812 120.917 87.6849 112.844 98.4922C112.193 98.4922 111.542 98.069 110.891 97.2227C110.24 96.3763 109.979 95.7578 110.109 95.3672C111.542 91.7865 115.676 86.7409 122.512 80.2305C125.832 77.0404 129.999 74.306 135.012 72.0273C140.025 69.7487 145.07 68.6094 150.148 68.6094C155.682 68.6094 160.142 70.2695 163.527 73.5898C166.978 76.9102 169.191 80.9141 170.168 85.6016C171.145 90.2891 171.112 95.237 170.07 100.445C169.289 104.547 167.759 108.941 165.48 113.629C163.202 118.251 160.793 122.483 158.254 126.324C155.715 130.165 152.362 134.495 148.195 139.312C142.987 145.302 138.169 150.543 133.742 155.035C129.38 159.462 125.116 163.531 120.949 167.242C116.848 170.953 112.583 174.729 108.156 178.57C107.245 179.482 107.245 179.938 108.156 179.938H141.555C143.443 179.938 144.81 179.84 145.656 179.645C146.503 179.449 147.284 179.124 148 178.668C148.716 178.147 149.79 177.496 151.223 176.715C152.069 176.194 152.915 175.152 153.762 173.59C154.608 172.027 155.422 170.4 156.203 168.707C157.049 166.949 157.766 165.615 158.352 164.703C159.133 163.401 160.109 162.75 161.281 162.75C163.039 162.75 164.081 163.01 164.406 163.531Z" fill="white"/>
</svg>
