<svg width="249" height="249" viewBox="0 0 249 249" fill="none" xmlns="http://www.w3.org/2000/svg">
<path d="M186.75 207.578C169.41 220.532 147.856 228.25 124.5 228.25C86.0979 228.25 52.5685 207.386 34.6299 176.375H77.8124" stroke="white" stroke-opacity="0.6" stroke-width="8" stroke-linecap="round" stroke-linejoin="round" stroke-dasharray="16 16"/>
<path d="M166 29.3828C202.642 45.3926 228.25 81.9556 228.25 124.5C228.25 143.397 223.198 161.115 214.37 176.375L193.4 140.062" stroke="white" stroke-opacity="0.6" stroke-width="8" stroke-linecap="round" stroke-linejoin="round" stroke-dasharray="16 16"/>
<path d="M21.2623 134.875C20.9235 131.463 20.75 128.002 20.75 124.5C20.75 67.2004 67.2004 20.75 124.5 20.75L103.531 57.0625" stroke="white" stroke-opacity="0.6" stroke-width="8" stroke-linecap="round" stroke-linejoin="round" stroke-dasharray="16 16"/>
<path d="M122.219 97.125C121.568 96.7344 121.014 95.9857 120.559 94.8789C120.103 93.7721 119.875 92.8932 119.875 92.2422C119.875 91.8516 120.07 91.4609 120.461 91.0703C143.964 76.0964 155.878 68.6094 156.203 68.6094H156.594C157.635 68.6094 158.156 69.8464 158.156 72.3203C156.073 76.6823 154.25 82.8021 152.688 90.6797L137.844 167.633C137.128 171.604 136.607 175.055 136.281 177.984C135.956 180.849 135.826 183.193 135.891 185.016C136.021 185.602 136.835 186.22 138.332 186.871C139.895 187.457 141.555 187.945 143.312 188.336C145.135 188.727 146.438 188.922 147.219 188.922C147.609 188.922 147.609 190.094 147.219 192.438C147.154 193.479 146.958 194.195 146.633 194.586C140.643 194.26 135.826 194.033 132.18 193.902C128.599 193.707 126.19 193.609 124.953 193.609C124.042 193.609 121.796 193.707 118.215 193.902C114.699 194.033 109.849 194.26 103.664 194.586C103.273 194.065 103.273 192.991 103.664 191.363C104.055 189.736 104.445 188.922 104.836 188.922C106.008 188.922 107.603 188.727 109.621 188.336C111.639 187.945 113.527 187.457 115.285 186.871C117.043 186.22 118.052 185.602 118.312 185.016C119.289 182.997 120.331 179.286 121.438 173.883L135.109 103.57C135.891 99.7292 136.379 96.8646 136.574 94.9766C136.835 92.112 136.346 90.6797 135.109 90.6797C134.328 90.6797 133.026 91.1354 131.203 92.0469C129.445 92.9583 127.688 93.9349 125.93 94.9766C124.172 96.0182 122.935 96.7344 122.219 97.125Z" fill="white"/>
</svg>
