<svg width="249" height="249" viewBox="0 0 249 249" fill="none" xmlns="http://www.w3.org/2000/svg">
<path d="M186.75 207.578C169.41 220.532 147.856 228.25 124.5 228.25C86.0979 228.25 52.5685 207.386 34.6299 176.375H77.8124" stroke="white" stroke-opacity="0.6" stroke-width="8" stroke-linecap="round" stroke-linejoin="round" stroke-dasharray="16 16"/>
<path d="M166 29.3828C202.642 45.3926 228.25 81.9556 228.25 124.5C228.25 143.397 223.198 161.115 214.37 176.375L193.4 140.062" stroke="white" stroke-opacity="0.6" stroke-width="8" stroke-linecap="round" stroke-linejoin="round" stroke-dasharray="16 16"/>
<path d="M21.2623 134.875C20.9235 131.463 20.75 128.002 20.75 124.5C20.75 67.2004 67.2004 20.75 124.5 20.75L103.531 57.0625" stroke="white" stroke-opacity="0.6" stroke-width="8" stroke-linecap="round" stroke-linejoin="round" stroke-dasharray="16 16"/>
<path d="M148.781 68.6094C152.297 68.6094 155.52 69.6836 158.449 71.832C161.444 73.9154 163.69 76.8451 165.188 80.6211C166.685 84.332 166.945 88.6615 165.969 93.6094C164.797 99.3385 162.551 104.189 159.23 108.16C155.91 112.132 151.451 116.07 145.852 119.977C148.456 121.018 150.93 122.418 153.273 124.176C155.617 125.934 157.863 128.18 160.012 130.914C162.16 133.648 163.69 137.001 164.602 140.973C165.513 144.944 165.513 149.208 164.602 153.766C163.039 161.969 159.816 169.163 154.934 175.348C150.051 181.533 144.094 186.35 137.062 189.801C130.031 193.251 122.479 194.977 114.406 194.977C104.12 194.977 96.6328 193.023 91.9453 189.117C91.5547 188.727 91.2943 187.88 91.1641 186.578C91.0339 185.276 91.0339 184.234 91.1641 183.453C92.5312 177.333 95.3958 174.273 99.7578 174.273C101.516 174.273 103.078 175.38 104.445 177.594C105.878 179.742 107.31 181.565 108.742 183.062C111.802 185.797 116.099 187.164 121.633 187.164C126.451 187.164 131.366 185.178 136.379 181.207C138.918 179.189 141.229 176.259 143.312 172.418C145.396 168.577 146.958 164.052 148 158.844C149.042 153.701 148.879 149.078 147.512 144.977C146.21 140.81 144.061 137.49 141.066 135.016C138.072 132.542 134.523 131.305 130.422 131.305C126.125 131.305 122.089 131.76 118.312 132.672C117.531 131.435 117.401 129.742 117.922 127.594C118.052 127.203 118.182 126.845 118.312 126.52C118.443 126.194 118.573 125.901 118.703 125.641C127.427 124.078 134.719 120.953 140.578 116.266C146.438 111.578 150.148 105.198 151.711 97.125C152.622 92.6979 151.809 88.7591 149.27 85.3086C146.73 81.8581 143.378 80.1328 139.211 80.1328C136.607 80.1328 134.068 80.6211 131.594 81.5977C129.12 82.5742 127.232 83.5833 125.93 84.625C124.758 85.5365 123.553 86.6107 122.316 87.8477C121.079 89.0846 120.201 89.8333 119.68 90.0938C119.159 90.0938 118.801 89.4753 118.605 88.2383C118.41 87.0013 118.378 85.9271 118.508 85.0156C122.805 79.8073 127.297 75.7708 131.984 72.9062C136.672 70.0417 142.271 68.6094 148.781 68.6094Z" fill="white"/>
</svg>
