<svg width="164" height="164" viewBox="0 0 164 164" fill="none" xmlns="http://www.w3.org/2000/svg">
<g filter="url(#filter0_d_510_9475)">
<path d="M5 16C5 8.82029 10.8203 3 18 3H146C153.18 3 159 8.8203 159 16V157H5V16Z" fill="url(#paint0_linear_510_9475)" shape-rendering="crispEdges"/>
<path d="M18 3.4H146C152.959 3.4 158.6 9.04121 158.6 16V156.6H5.4V16C5.4 9.04121 11.0412 3.4 18 3.4Z" stroke="url(#paint1_linear_510_9475)" stroke-width="0.8" shape-rendering="crispEdges"/>
</g>
<g filter="url(#filter1_d_510_9475)">
<path d="M14 19C14 15.134 17.134 12 21 12H143C146.866 12 150 15.134 150 19V148H14V19Z" fill="white"/>
</g>
<defs>
<filter id="filter0_d_510_9475" x="0" y="0" width="164" height="164" filterUnits="userSpaceOnUse" color-interpolation-filters="sRGB">
<feFlood flood-opacity="0" result="BackgroundImageFix"/>
<feColorMatrix in="SourceAlpha" type="matrix" values="0 0 0 0 0 0 0 0 0 0 0 0 0 0 0 0 0 0 127 0" result="hardAlpha"/>
<feOffset dy="2"/>
<feGaussianBlur stdDeviation="2.5"/>
<feComposite in2="hardAlpha" operator="out"/>
<feColorMatrix type="matrix" values="0 0 0 0 0 0 0 0 0 0 0 0 0 0 0 0 0 0 0.35 0"/>
<feBlend mode="normal" in2="BackgroundImageFix" result="effect1_dropShadow_510_9475"/>
<feBlend mode="normal" in="SourceGraphic" in2="effect1_dropShadow_510_9475" result="shape"/>
</filter>
<filter id="filter1_d_510_9475" x="7" y="7" width="150" height="150" filterUnits="userSpaceOnUse" color-interpolation-filters="sRGB">
<feFlood flood-opacity="0" result="BackgroundImageFix"/>
<feColorMatrix in="SourceAlpha" type="matrix" values="0 0 0 0 0 0 0 0 0 0 0 0 0 0 0 0 0 0 127 0" result="hardAlpha"/>
<feOffset dy="2"/>
<feGaussianBlur stdDeviation="3.5"/>
<feComposite in2="hardAlpha" operator="out"/>
<feColorMatrix type="matrix" values="0 0 0 0 0 0 0 0 0 0 0 0 0 0 0 0 0 0 0.45 0"/>
<feBlend mode="normal" in2="BackgroundImageFix" result="effect1_dropShadow_510_9475"/>
<feBlend mode="normal" in="SourceGraphic" in2="effect1_dropShadow_510_9475" result="shape"/>
</filter>
<linearGradient id="paint0_linear_510_9475" x1="82" y1="3" x2="82" y2="157" gradientUnits="userSpaceOnUse">
<stop stop-color="#4A7DFF" stop-opacity="0.35"/>
<stop offset="1" stop-color="#4A7DFF" stop-opacity="0.1"/>
</linearGradient>
<linearGradient id="paint1_linear_510_9475" x1="82.5789" y1="2.99997" x2="140.414" y2="130.834" gradientUnits="userSpaceOnUse">
<stop stop-color="#3888FF"/>
<stop offset="0.508893" stop-color="#CD3FFF"/>
<stop offset="1" stop-color="#17FFFF"/>
</linearGradient>
</defs>
</svg>
