<svg width="192" height="49" viewBox="0 0 192 49" fill="none" xmlns="http://www.w3.org/2000/svg">
<path d="M18 9.5L39 6.5V25H18V9.5Z" fill="white"/>
<path d="M18 42.5L39 45.5V27H18V42.5Z" fill="white"/>
<path d="M0 11.5L16 10V25H0L0 11.5Z" fill="white"/>
<path d="M0 40.5L16 42V27H0L0 40.5Z" fill="white"/>
<path d="M52.692 17V4.4H58.2C59.568 4.4 60.768 4.664 61.8 5.192C62.832 5.72 63.636 6.452 64.212 7.388C64.788 8.324 65.076 9.428 65.076 10.7C65.076 11.96 64.788 13.064 64.212 14.012C63.636 14.948 62.832 15.68 61.8 16.208C60.768 16.736 59.568 17 58.2 17H52.692ZM55.032 15.02H58.092C59.04 15.02 59.856 14.84 60.54 14.48C61.236 14.12 61.77 13.616 62.142 12.968C62.526 12.32 62.718 11.564 62.718 10.7C62.718 9.824 62.526 9.068 62.142 8.432C61.77 7.784 61.236 7.28 60.54 6.92C59.856 6.56 59.04 6.38 58.092 6.38H55.032V15.02ZM71.6671 17.126C70.6831 17.126 69.8071 16.916 69.0391 16.496C68.2711 16.064 67.6651 15.476 67.2211 14.732C66.7771 13.988 66.5551 13.142 66.5551 12.194C66.5551 11.234 66.7771 10.388 67.2211 9.656C67.6651 8.912 68.2711 8.33 69.0391 7.91C69.8071 7.49 70.6831 7.28 71.6671 7.28C72.6631 7.28 73.5451 7.49 74.3131 7.91C75.0931 8.33 75.6991 8.906 76.1311 9.638C76.5751 10.37 76.7971 11.222 76.7971 12.194C76.7971 13.142 76.5751 13.988 76.1311 14.732C75.6991 15.476 75.0931 16.064 74.3131 16.496C73.5451 16.916 72.6631 17.126 71.6671 17.126ZM71.6671 15.2C72.2191 15.2 72.7111 15.08 73.1431 14.84C73.5751 14.6 73.9111 14.252 74.1511 13.796C74.4031 13.34 74.5291 12.806 74.5291 12.194C74.5291 11.57 74.4031 11.036 74.1511 10.592C73.9111 10.136 73.5751 9.788 73.1431 9.548C72.7111 9.308 72.2251 9.188 71.6851 9.188C71.1331 9.188 70.6411 9.308 70.2091 9.548C69.7891 9.788 69.4531 10.136 69.2011 10.592C68.9491 11.036 68.8231 11.57 68.8231 12.194C68.8231 12.806 68.9491 13.34 69.2011 13.796C69.4531 14.252 69.7891 14.6 70.2091 14.84C70.6411 15.08 71.1271 15.2 71.6671 15.2ZM80.809 17L77.281 7.388H79.405L82.429 15.866H81.421L84.589 7.388H86.479L89.557 15.866H88.567L91.681 7.388H93.679L90.133 17H87.973L85.165 9.494H85.831L82.969 17H80.809ZM100.68 7.28C101.448 7.28 102.132 7.43 102.732 7.73C103.344 8.03 103.824 8.492 104.172 9.116C104.52 9.728 104.694 10.52 104.694 11.492V17H102.444V11.78C102.444 10.928 102.24 10.292 101.832 9.872C101.436 9.452 100.878 9.242 100.158 9.242C99.63 9.242 99.162 9.35 98.754 9.566C98.346 9.782 98.028 10.106 97.8 10.538C97.584 10.958 97.476 11.492 97.476 12.14V17H95.226V7.388H97.368V9.98L96.99 9.188C97.326 8.576 97.812 8.108 98.448 7.784C99.096 7.448 99.84 7.28 100.68 7.28ZM107.548 17V3.644H109.798V17H107.548ZM117.071 17.126C116.087 17.126 115.211 16.916 114.443 16.496C113.675 16.064 113.069 15.476 112.625 14.732C112.181 13.988 111.959 13.142 111.959 12.194C111.959 11.234 112.181 10.388 112.625 9.656C113.069 8.912 113.675 8.33 114.443 7.91C115.211 7.49 116.087 7.28 117.071 7.28C118.067 7.28 118.949 7.49 119.717 7.91C120.497 8.33 121.103 8.906 121.535 9.638C121.979 10.37 122.201 11.222 122.201 12.194C122.201 13.142 121.979 13.988 121.535 14.732C121.103 15.476 120.497 16.064 119.717 16.496C118.949 16.916 118.067 17.126 117.071 17.126ZM117.071 15.2C117.623 15.2 118.115 15.08 118.547 14.84C118.979 14.6 119.315 14.252 119.555 13.796C119.807 13.34 119.933 12.806 119.933 12.194C119.933 11.57 119.807 11.036 119.555 10.592C119.315 10.136 118.979 9.788 118.547 9.548C118.115 9.308 117.629 9.188 117.089 9.188C116.537 9.188 116.045 9.308 115.613 9.548C115.193 9.788 114.857 10.136 114.605 10.592C114.353 11.036 114.227 11.57 114.227 12.194C114.227 12.806 114.353 13.34 114.605 13.796C114.857 14.252 115.193 14.6 115.613 14.84C116.045 15.08 116.531 15.2 117.071 15.2ZM130.152 17V15.056L130.026 14.642V11.24C130.026 10.58 129.828 10.07 129.432 9.71C129.036 9.338 128.436 9.152 127.632 9.152C127.092 9.152 126.558 9.236 126.03 9.404C125.514 9.572 125.076 9.806 124.716 10.106L123.834 8.468C124.35 8.072 124.962 7.778 125.67 7.586C126.39 7.382 127.134 7.28 127.902 7.28C129.294 7.28 130.368 7.616 131.124 8.288C131.892 8.948 132.276 9.974 132.276 11.366V17H130.152ZM127.128 17.126C126.408 17.126 125.778 17.006 125.238 16.766C124.698 16.514 124.278 16.172 123.978 15.74C123.69 15.296 123.546 14.798 123.546 14.246C123.546 13.706 123.672 13.22 123.924 12.788C124.188 12.356 124.614 12.014 125.202 11.762C125.79 11.51 126.57 11.384 127.542 11.384H130.332V12.878H127.704C126.936 12.878 126.42 13.004 126.156 13.256C125.892 13.496 125.76 13.796 125.76 14.156C125.76 14.564 125.922 14.888 126.246 15.128C126.57 15.368 127.02 15.488 127.596 15.488C128.148 15.488 128.64 15.362 129.072 15.11C129.516 14.858 129.834 14.486 130.026 13.994L130.404 15.344C130.188 15.908 129.798 16.346 129.234 16.658C128.682 16.97 127.98 17.126 127.128 17.126ZM139.249 17.126C138.325 17.126 137.491 16.922 136.747 16.514C136.015 16.094 135.439 15.518 135.019 14.786C134.599 14.054 134.389 13.19 134.389 12.194C134.389 11.198 134.599 10.334 135.019 9.602C135.439 8.87 136.015 8.3 136.747 7.892C137.491 7.484 138.325 7.28 139.249 7.28C140.053 7.28 140.773 7.46 141.409 7.82C142.045 8.168 142.549 8.702 142.921 9.422C143.293 10.142 143.479 11.066 143.479 12.194C143.479 13.31 143.299 14.234 142.939 14.966C142.579 15.686 142.081 16.226 141.445 16.586C140.809 16.946 140.077 17.126 139.249 17.126ZM139.519 15.2C140.059 15.2 140.539 15.08 140.959 14.84C141.391 14.6 141.733 14.252 141.985 13.796C142.249 13.34 142.381 12.806 142.381 12.194C142.381 11.57 142.249 11.036 141.985 10.592C141.733 10.136 141.391 9.788 140.959 9.548C140.539 9.308 140.059 9.188 139.519 9.188C138.979 9.188 138.493 9.308 138.061 9.548C137.641 9.788 137.299 10.136 137.035 10.592C136.783 11.036 136.657 11.57 136.657 12.194C136.657 12.806 136.783 13.34 137.035 13.796C137.299 14.252 137.641 14.6 138.061 14.84C138.493 15.08 138.979 15.2 139.519 15.2ZM142.435 17V14.732L142.525 12.176L142.345 9.62V3.644H144.577V17H142.435ZM152.819 17V6.848C152.819 5.84 153.113 5.036 153.701 4.436C154.301 3.824 155.153 3.518 156.257 3.518C156.653 3.518 157.025 3.56 157.373 3.644C157.733 3.728 158.033 3.86 158.273 4.04L157.661 5.732C157.493 5.6 157.301 5.504 157.085 5.444C156.869 5.372 156.647 5.336 156.419 5.336C155.951 5.336 155.597 5.468 155.357 5.732C155.117 5.984 154.997 6.368 154.997 6.884V7.964L155.069 8.972V17H152.819ZM151.235 9.26V7.46H157.643V9.26H151.235ZM163.337 17.126C162.353 17.126 161.477 16.916 160.709 16.496C159.941 16.064 159.335 15.476 158.891 14.732C158.447 13.988 158.225 13.142 158.225 12.194C158.225 11.234 158.447 10.388 158.891 9.656C159.335 8.912 159.941 8.33 160.709 7.91C161.477 7.49 162.353 7.28 163.337 7.28C164.333 7.28 165.215 7.49 165.983 7.91C166.763 8.33 167.369 8.906 167.801 9.638C168.245 10.37 168.467 11.222 168.467 12.194C168.467 13.142 168.245 13.988 167.801 14.732C167.369 15.476 166.763 16.064 165.983 16.496C165.215 16.916 164.333 17.126 163.337 17.126ZM163.337 15.2C163.889 15.2 164.381 15.08 164.813 14.84C165.245 14.6 165.581 14.252 165.821 13.796C166.073 13.34 166.199 12.806 166.199 12.194C166.199 11.57 166.073 11.036 165.821 10.592C165.581 10.136 165.245 9.788 164.813 9.548C164.381 9.308 163.895 9.188 163.355 9.188C162.803 9.188 162.311 9.308 161.879 9.548C161.459 9.788 161.123 10.136 160.871 10.592C160.619 11.036 160.493 11.57 160.493 12.194C160.493 12.806 160.619 13.34 160.871 13.796C161.123 14.252 161.459 14.6 161.879 14.84C162.311 15.08 162.797 15.2 163.337 15.2ZM170.619 17V7.388H172.761V10.034L172.509 9.26C172.797 8.612 173.247 8.12 173.859 7.784C174.483 7.448 175.257 7.28 176.181 7.28V9.422C176.085 9.398 175.995 9.386 175.911 9.386C175.827 9.374 175.743 9.368 175.659 9.368C174.807 9.368 174.129 9.62 173.625 10.124C173.121 10.616 172.869 11.354 172.869 12.338V17H170.619Z" fill="white"/>
<path d="M58.3815 45L51.7695 25.05H55.617L61.5165 43.0905H59.607L65.7345 25.05H69.1545L75.111 43.0905H73.2585L79.3005 25.05H82.8345L76.2225 45H72.2895L66.846 28.7265H67.872L62.343 45H58.3815ZM85.65 45V29.781H89.2125V45H85.65ZM87.4455 27.273C86.7805 27.273 86.2295 27.064 85.7925 26.646C85.3745 26.228 85.1655 25.7245 85.1655 25.1355C85.1655 24.5275 85.3745 24.024 85.7925 23.625C86.2295 23.207 86.7805 22.998 87.4455 22.998C88.1105 22.998 88.652 23.1975 89.07 23.5965C89.507 23.9765 89.7255 24.461 89.7255 25.05C89.7255 25.677 89.5165 26.209 89.0985 26.646C88.6805 27.064 88.1295 27.273 87.4455 27.273ZM102.524 29.61C103.74 29.61 104.823 29.8475 105.773 30.3225C106.742 30.7975 107.502 31.529 108.053 32.517C108.604 33.486 108.879 34.74 108.879 36.279V45H105.317V36.735C105.317 35.386 104.994 34.379 104.348 33.714C103.721 33.049 102.837 32.7165 101.697 32.7165C100.861 32.7165 100.12 32.8875 99.4743 33.2295C98.8283 33.5715 98.3248 34.0845 97.9638 34.7685C97.6218 35.4335 97.4508 36.279 97.4508 37.305V45H93.8883V29.781H97.2798V33.885L96.6813 32.631C97.2133 31.662 97.9828 30.921 98.9898 30.408C100.016 29.876 101.194 29.61 102.524 29.61ZM119.867 45.1995C118.404 45.1995 117.084 44.8765 115.906 44.2305C114.747 43.5655 113.835 42.6535 113.17 41.4945C112.505 40.3355 112.172 38.9675 112.172 37.3905C112.172 35.8135 112.505 34.4455 113.17 33.2865C113.835 32.1275 114.747 31.225 115.906 30.579C117.084 29.933 118.404 29.61 119.867 29.61C121.14 29.61 122.28 29.895 123.287 30.465C124.294 31.016 125.092 31.8615 125.681 33.0015C126.27 34.1415 126.565 35.6045 126.565 37.3905C126.565 39.1575 126.28 40.6205 125.71 41.7795C125.14 42.9195 124.351 43.7745 123.344 44.3445C122.337 44.9145 121.178 45.1995 119.867 45.1995ZM120.295 42.15C121.15 42.15 121.91 41.96 122.575 41.58C123.259 41.2 123.8 40.649 124.199 39.927C124.617 39.205 124.826 38.3595 124.826 37.3905C124.826 36.4025 124.617 35.557 124.199 34.854C123.8 34.132 123.259 33.581 122.575 33.201C121.91 32.821 121.15 32.631 120.295 32.631C119.44 32.631 118.67 32.821 117.986 33.201C117.321 33.581 116.78 34.132 116.362 34.854C115.963 35.557 115.763 36.4025 115.763 37.3905C115.763 38.3595 115.963 39.205 116.362 39.927C116.78 40.649 117.321 41.2 117.986 41.58C118.67 41.96 119.44 42.15 120.295 42.15ZM124.912 45V41.409L125.054 37.362L124.769 33.315V23.853H128.303V45H124.912ZM139.832 45.1995C138.274 45.1995 136.887 44.867 135.671 44.202C134.455 43.518 133.496 42.587 132.793 41.409C132.09 40.231 131.738 38.8915 131.738 37.3905C131.738 35.8705 132.09 34.531 132.793 33.372C133.496 32.194 134.455 31.2725 135.671 30.6075C136.887 29.9425 138.274 29.61 139.832 29.61C141.409 29.61 142.806 29.9425 144.022 30.6075C145.257 31.2725 146.216 32.1845 146.9 33.3435C147.603 34.5025 147.955 35.8515 147.955 37.3905C147.955 38.8915 147.603 40.231 146.9 41.409C146.216 42.587 145.257 43.518 144.022 44.202C142.806 44.867 141.409 45.1995 139.832 45.1995ZM139.832 42.15C140.706 42.15 141.485 41.96 142.169 41.58C142.853 41.2 143.385 40.649 143.765 39.927C144.164 39.205 144.364 38.3595 144.364 37.3905C144.364 36.4025 144.164 35.557 143.765 34.854C143.385 34.132 142.853 33.581 142.169 33.201C141.485 32.821 140.716 32.631 139.861 32.631C138.987 32.631 138.208 32.821 137.524 33.201C136.859 33.581 136.327 34.132 135.928 34.854C135.529 35.557 135.329 36.4025 135.329 37.3905C135.329 38.3595 135.529 39.205 135.928 39.927C136.327 40.649 136.859 41.2 137.524 41.58C138.208 41.96 138.977 42.15 139.832 42.15ZM154.307 45L148.721 29.781H152.084L156.872 43.2045H155.276L160.292 29.781H163.284L168.158 43.2045H166.59L171.521 29.781H174.684L169.07 45H165.65L161.204 33.1155H162.258L157.727 45H154.307ZM181.642 45.1995C180.369 45.1995 179.143 45.038 177.965 44.715C176.806 44.373 175.885 43.9645 175.201 43.4895L176.569 40.782C177.253 41.219 178.07 41.58 179.02 41.865C179.97 42.15 180.92 42.2925 181.87 42.2925C182.991 42.2925 183.798 42.1405 184.292 41.8365C184.805 41.5325 185.062 41.124 185.062 40.611C185.062 40.193 184.891 39.8795 184.549 39.6705C184.207 39.4425 183.76 39.2715 183.209 39.1575C182.658 39.0435 182.041 38.939 181.357 38.844C180.692 38.749 180.017 38.6255 179.333 38.4735C178.668 38.3025 178.06 38.065 177.509 37.761C176.958 37.438 176.512 37.0105 176.17 36.4785C175.828 35.9465 175.657 35.2435 175.657 34.3695C175.657 33.4005 175.932 32.5645 176.483 31.8615C177.034 31.1395 177.804 30.5885 178.792 30.2085C179.799 29.8095 180.986 29.61 182.354 29.61C183.38 29.61 184.416 29.724 185.461 29.952C186.506 30.18 187.37 30.503 188.054 30.921L186.686 33.6285C185.964 33.1915 185.233 32.897 184.492 32.745C183.77 32.574 183.048 32.4885 182.326 32.4885C181.243 32.4885 180.435 32.65 179.903 32.973C179.39 33.296 179.134 33.7045 179.134 34.1985C179.134 34.6545 179.305 34.9965 179.647 35.2245C179.989 35.4525 180.435 35.633 180.986 35.766C181.537 35.899 182.145 36.013 182.81 36.108C183.494 36.184 184.169 36.3075 184.834 36.4785C185.499 36.6495 186.107 36.887 186.658 37.191C187.228 37.476 187.684 37.8845 188.026 38.4165C188.368 38.9485 188.539 39.642 188.539 40.497C188.539 41.447 188.254 42.2735 187.684 42.9765C187.133 43.6795 186.344 44.2305 185.318 44.6295C184.292 45.0095 183.067 45.1995 181.642 45.1995Z" fill="white"/>
</svg>
