<svg width="272" height="26" viewBox="0 0 272 26" fill="none" xmlns="http://www.w3.org/2000/svg">
<path d="M12 1.94595L26 0V12H12V1.94595Z" fill="white"/>
<path d="M12 24.0541L26 26V14H12V24.0541Z" fill="white"/>
<path d="M0 3L10 2V12H0V3Z" fill="white"/>
<path d="M0 23L10 24V14H0V23Z" fill="white"/>
<path d="M33 18.482V5.882H38.508C39.876 5.882 41.076 6.146 42.108 6.674C43.14 7.202 43.944 7.934 44.52 8.87C45.096 9.806 45.384 10.91 45.384 12.182C45.384 13.442 45.096 14.546 44.52 15.494C43.944 16.43 43.14 17.162 42.108 17.69C41.076 18.218 39.876 18.482 38.508 18.482H33ZM35.34 16.502H38.4C39.348 16.502 40.164 16.322 40.848 15.962C41.544 15.602 42.078 15.098 42.45 14.45C42.834 13.802 43.026 13.046 43.026 12.182C43.026 11.306 42.834 10.55 42.45 9.914C42.078 9.266 41.544 8.762 40.848 8.402C40.164 8.042 39.348 7.862 38.4 7.862H35.34V16.502ZM51.9751 18.608C50.9911 18.608 50.1151 18.398 49.3471 17.978C48.5791 17.546 47.9731 16.958 47.5291 16.214C47.0851 15.47 46.8631 14.624 46.8631 13.676C46.8631 12.716 47.0851 11.87 47.5291 11.138C47.9731 10.394 48.5791 9.812 49.3471 9.392C50.1151 8.972 50.9911 8.762 51.9751 8.762C52.9711 8.762 53.8531 8.972 54.6211 9.392C55.4011 9.812 56.0071 10.388 56.4391 11.12C56.8831 11.852 57.1051 12.704 57.1051 13.676C57.1051 14.624 56.8831 15.47 56.4391 16.214C56.0071 16.958 55.4011 17.546 54.6211 17.978C53.8531 18.398 52.9711 18.608 51.9751 18.608ZM51.9751 16.682C52.5271 16.682 53.0191 16.562 53.4511 16.322C53.8831 16.082 54.2191 15.734 54.4591 15.278C54.7111 14.822 54.8371 14.288 54.8371 13.676C54.8371 13.052 54.7111 12.518 54.4591 12.074C54.2191 11.618 53.8831 11.27 53.4511 11.03C53.0191 10.79 52.5331 10.67 51.9931 10.67C51.4411 10.67 50.9491 10.79 50.5171 11.03C50.0971 11.27 49.7611 11.618 49.5091 12.074C49.2571 12.518 49.1311 13.052 49.1311 13.676C49.1311 14.288 49.2571 14.822 49.5091 15.278C49.7611 15.734 50.0971 16.082 50.5171 16.322C50.9491 16.562 51.4351 16.682 51.9751 16.682ZM61.117 18.482L57.589 8.87H59.713L62.737 17.348H61.729L64.897 8.87H66.787L69.865 17.348H68.875L71.989 8.87H73.987L70.441 18.482H68.281L65.473 10.976H66.139L63.277 18.482H61.117ZM80.988 8.762C81.756 8.762 82.44 8.912 83.04 9.212C83.652 9.512 84.132 9.974 84.48 10.598C84.828 11.21 85.002 12.002 85.002 12.974V18.482H82.752V13.262C82.752 12.41 82.548 11.774 82.14 11.354C81.744 10.934 81.186 10.724 80.466 10.724C79.938 10.724 79.47 10.832 79.062 11.048C78.654 11.264 78.336 11.588 78.108 12.02C77.892 12.44 77.784 12.974 77.784 13.622V18.482H75.534V8.87H77.676V11.462L77.298 10.67C77.634 10.058 78.12 9.59 78.756 9.266C79.404 8.93 80.148 8.762 80.988 8.762ZM87.856 18.482V5.126H90.106V18.482H87.856ZM97.379 18.608C96.395 18.608 95.519 18.398 94.751 17.978C93.983 17.546 93.377 16.958 92.933 16.214C92.489 15.47 92.267 14.624 92.267 13.676C92.267 12.716 92.489 11.87 92.933 11.138C93.377 10.394 93.983 9.812 94.751 9.392C95.519 8.972 96.395 8.762 97.379 8.762C98.375 8.762 99.257 8.972 100.025 9.392C100.805 9.812 101.411 10.388 101.843 11.12C102.287 11.852 102.509 12.704 102.509 13.676C102.509 14.624 102.287 15.47 101.843 16.214C101.411 16.958 100.805 17.546 100.025 17.978C99.257 18.398 98.375 18.608 97.379 18.608ZM97.379 16.682C97.931 16.682 98.423 16.562 98.855 16.322C99.287 16.082 99.623 15.734 99.863 15.278C100.115 14.822 100.241 14.288 100.241 13.676C100.241 13.052 100.115 12.518 99.863 12.074C99.623 11.618 99.287 11.27 98.855 11.03C98.423 10.79 97.937 10.67 97.397 10.67C96.845 10.67 96.353 10.79 95.921 11.03C95.501 11.27 95.165 11.618 94.913 12.074C94.661 12.518 94.535 13.052 94.535 13.676C94.535 14.288 94.661 14.822 94.913 15.278C95.165 15.734 95.501 16.082 95.921 16.322C96.353 16.562 96.839 16.682 97.379 16.682ZM110.46 18.482V16.538L110.334 16.124V12.722C110.334 12.062 110.136 11.552 109.74 11.192C109.344 10.82 108.744 10.634 107.94 10.634C107.4 10.634 106.866 10.718 106.338 10.886C105.822 11.054 105.384 11.288 105.024 11.588L104.142 9.95C104.658 9.554 105.27 9.26 105.978 9.068C106.698 8.864 107.442 8.762 108.21 8.762C109.602 8.762 110.676 9.098 111.432 9.77C112.2 10.43 112.584 11.456 112.584 12.848V18.482H110.46ZM107.436 18.608C106.716 18.608 106.086 18.488 105.546 18.248C105.006 17.996 104.586 17.654 104.286 17.222C103.998 16.778 103.854 16.28 103.854 15.728C103.854 15.188 103.98 14.702 104.232 14.27C104.496 13.838 104.922 13.496 105.51 13.244C106.098 12.992 106.878 12.866 107.85 12.866H110.64V14.36H108.012C107.244 14.36 106.728 14.486 106.464 14.738C106.2 14.978 106.068 15.278 106.068 15.638C106.068 16.046 106.23 16.37 106.554 16.61C106.878 16.85 107.328 16.97 107.904 16.97C108.456 16.97 108.948 16.844 109.38 16.592C109.824 16.34 110.142 15.968 110.334 15.476L110.712 16.826C110.496 17.39 110.106 17.828 109.542 18.14C108.99 18.452 108.288 18.608 107.436 18.608ZM119.557 18.608C118.633 18.608 117.799 18.404 117.055 17.996C116.323 17.576 115.747 17 115.327 16.268C114.907 15.536 114.697 14.672 114.697 13.676C114.697 12.68 114.907 11.816 115.327 11.084C115.747 10.352 116.323 9.782 117.055 9.374C117.799 8.966 118.633 8.762 119.557 8.762C120.361 8.762 121.081 8.942 121.717 9.302C122.353 9.65 122.857 10.184 123.229 10.904C123.601 11.624 123.787 12.548 123.787 13.676C123.787 14.792 123.607 15.716 123.247 16.448C122.887 17.168 122.389 17.708 121.753 18.068C121.117 18.428 120.385 18.608 119.557 18.608ZM119.827 16.682C120.367 16.682 120.847 16.562 121.267 16.322C121.699 16.082 122.041 15.734 122.293 15.278C122.557 14.822 122.689 14.288 122.689 13.676C122.689 13.052 122.557 12.518 122.293 12.074C122.041 11.618 121.699 11.27 121.267 11.03C120.847 10.79 120.367 10.67 119.827 10.67C119.287 10.67 118.801 10.79 118.369 11.03C117.949 11.27 117.607 11.618 117.343 12.074C117.091 12.518 116.965 13.052 116.965 13.676C116.965 14.288 117.091 14.822 117.343 15.278C117.607 15.734 117.949 16.082 118.369 16.322C118.801 16.562 119.287 16.682 119.827 16.682ZM122.743 18.482V16.214L122.833 13.658L122.653 11.102V5.126H124.885V18.482H122.743ZM133.127 18.482V8.33C133.127 7.322 133.421 6.518 134.009 5.918C134.609 5.306 135.461 5 136.565 5C136.961 5 137.333 5.042 137.681 5.126C138.041 5.21 138.341 5.342 138.581 5.522L137.969 7.214C137.801 7.082 137.609 6.986 137.393 6.926C137.177 6.854 136.955 6.818 136.727 6.818C136.259 6.818 135.905 6.95 135.665 7.214C135.425 7.466 135.305 7.85 135.305 8.366V9.446L135.377 10.454V18.482H133.127ZM131.543 10.742V8.942H137.951V10.742H131.543ZM143.645 18.608C142.661 18.608 141.785 18.398 141.017 17.978C140.249 17.546 139.643 16.958 139.199 16.214C138.755 15.47 138.533 14.624 138.533 13.676C138.533 12.716 138.755 11.87 139.199 11.138C139.643 10.394 140.249 9.812 141.017 9.392C141.785 8.972 142.661 8.762 143.645 8.762C144.641 8.762 145.523 8.972 146.291 9.392C147.071 9.812 147.677 10.388 148.109 11.12C148.553 11.852 148.775 12.704 148.775 13.676C148.775 14.624 148.553 15.47 148.109 16.214C147.677 16.958 147.071 17.546 146.291 17.978C145.523 18.398 144.641 18.608 143.645 18.608ZM143.645 16.682C144.197 16.682 144.689 16.562 145.121 16.322C145.553 16.082 145.889 15.734 146.129 15.278C146.381 14.822 146.507 14.288 146.507 13.676C146.507 13.052 146.381 12.518 146.129 12.074C145.889 11.618 145.553 11.27 145.121 11.03C144.689 10.79 144.203 10.67 143.663 10.67C143.111 10.67 142.619 10.79 142.187 11.03C141.767 11.27 141.431 11.618 141.179 12.074C140.927 12.518 140.801 13.052 140.801 13.676C140.801 14.288 140.927 14.822 141.179 15.278C141.431 15.734 141.767 16.082 142.187 16.322C142.619 16.562 143.105 16.682 143.645 16.682ZM150.927 18.482V8.87H153.069V11.516L152.817 10.742C153.105 10.094 153.555 9.602 154.167 9.266C154.791 8.93 155.565 8.762 156.489 8.762V10.904C156.393 10.88 156.303 10.868 156.219 10.868C156.135 10.856 156.051 10.85 155.967 10.85C155.115 10.85 154.437 11.102 153.933 11.606C153.429 12.098 153.177 12.836 153.177 13.82V18.482H150.927Z" fill="white"/>
<path d="M168.27 20.8383L163 4.66367H166.066L170.768 19.2901H169.246L174.13 4.66367H176.855L181.602 19.2901H180.126L184.941 4.66367H187.758L182.488 20.8383H179.354L175.015 7.64442H175.833L171.427 20.8383H168.27ZM190.001 20.8383V8.49936H192.841V20.8383H190.001ZM191.432 6.46598C190.902 6.46598 190.463 6.29653 190.115 5.95764C189.782 5.61874 189.615 5.21053 189.615 4.73299C189.615 4.24005 189.782 3.83184 190.115 3.50834C190.463 3.16945 190.902 3 191.432 3C191.962 3 192.394 3.16175 192.727 3.48524C193.075 3.79333 193.249 4.18614 193.249 4.66367C193.249 5.17202 193.083 5.60334 192.75 5.95764C192.417 6.29653 191.978 6.46598 191.432 6.46598ZM203.449 8.36072C204.418 8.36072 205.282 8.55327 206.039 8.93838C206.811 9.32349 207.417 9.91656 207.856 10.7176C208.295 11.5032 208.514 12.5199 208.514 13.7677V20.8383H205.675V14.1374C205.675 13.0436 205.418 12.2272 204.903 11.6881C204.403 11.1489 203.699 10.8793 202.79 10.8793C202.124 10.8793 201.533 11.018 201.019 11.2953C200.504 11.5725 200.103 11.9884 199.815 12.543C199.543 13.0822 199.406 13.7677 199.406 14.5995V20.8383H196.567V8.49936H199.27V11.8267L198.793 10.81C199.217 10.0244 199.83 9.42362 200.633 9.0077C201.451 8.57638 202.389 8.36072 203.449 8.36072ZM217.271 21C216.105 21 215.053 20.7381 214.114 20.2144C213.191 19.6752 212.464 18.9358 211.934 17.9961C211.404 17.0565 211.138 15.9474 211.138 14.6688C211.138 13.3902 211.404 12.2811 211.934 11.3415C212.464 10.4018 213.191 9.67009 214.114 9.14634C215.053 8.62259 216.105 8.36072 217.271 8.36072C218.286 8.36072 219.194 8.59178 219.997 9.05392C220.799 9.50064 221.435 10.1861 221.905 11.1104C222.374 12.0347 222.609 13.2208 222.609 14.6688C222.609 16.1014 222.382 17.2875 221.928 18.2272C221.473 19.1515 220.845 19.8447 220.042 20.3068C219.24 20.7689 218.316 21 217.271 21ZM217.612 18.5276C218.294 18.5276 218.899 18.3736 219.429 18.0655C219.974 17.7574 220.406 17.3107 220.724 16.7253C221.057 16.1399 221.223 15.4544 221.223 14.6688C221.223 13.8678 221.057 13.1823 220.724 12.6123C220.406 12.027 219.974 11.5802 219.429 11.2721C218.899 10.9641 218.294 10.81 217.612 10.81C216.931 10.81 216.317 10.9641 215.772 11.2721C215.242 11.5802 214.811 12.027 214.478 12.6123C214.16 13.1823 214 13.8678 214 14.6688C214 15.4544 214.16 16.1399 214.478 16.7253C214.811 17.3107 215.242 17.7574 215.772 18.0655C216.317 18.3736 216.931 18.5276 217.612 18.5276ZM221.292 20.8383V17.9268L221.405 14.6457L221.178 11.3646V3.6932H223.994V20.8383H221.292ZM233.182 21C231.941 21 230.835 20.7304 229.866 20.1913C228.897 19.6367 228.133 18.8819 227.573 17.9268C227.012 16.9718 226.732 15.8857 226.732 14.6688C226.732 13.4365 227.012 12.3505 227.573 11.4108C228.133 10.4557 228.897 9.7086 229.866 9.16945C230.835 8.6303 231.941 8.36072 233.182 8.36072C234.439 8.36072 235.553 8.6303 236.522 9.16945C237.506 9.7086 238.27 10.448 238.815 11.3877C239.376 12.3273 239.656 13.4211 239.656 14.6688C239.656 15.8857 239.376 16.9718 238.815 17.9268C238.27 18.8819 237.506 19.6367 236.522 20.1913C235.553 20.7304 234.439 21 233.182 21ZM233.182 18.5276C233.879 18.5276 234.5 18.3736 235.045 18.0655C235.59 17.7574 236.014 17.3107 236.317 16.7253C236.635 16.1399 236.794 15.4544 236.794 14.6688C236.794 13.8678 236.635 13.1823 236.317 12.6123C236.014 12.027 235.59 11.5802 235.045 11.2721C234.5 10.9641 233.887 10.81 233.206 10.81C232.509 10.81 231.888 10.9641 231.343 11.2721C230.813 11.5802 230.389 12.027 230.071 12.6123C229.753 13.1823 229.594 13.8678 229.594 14.6688C229.594 15.4544 229.753 16.1399 230.071 16.7253C230.389 17.3107 230.813 17.7574 231.343 18.0655C231.888 18.3736 232.501 18.5276 233.182 18.5276ZM244.718 20.8383L240.267 8.49936H242.947L246.763 19.3825H245.491L249.488 8.49936H251.873L255.757 19.3825H254.507L258.437 8.49936H260.958L256.484 20.8383H253.758L250.215 11.2028H251.055L247.444 20.8383H244.718ZM266.503 21C265.489 21 264.512 20.8691 263.573 20.6072C262.649 20.3299 261.915 19.9987 261.37 19.6136L262.46 17.4185C263.005 17.7728 263.657 18.0655 264.414 18.2965C265.171 18.5276 265.928 18.6431 266.685 18.6431C267.578 18.6431 268.222 18.5199 268.615 18.2734C269.024 18.027 269.229 17.6958 269.229 17.2798C269.229 16.9409 269.093 16.6868 268.82 16.5173C268.548 16.3325 268.191 16.1938 267.752 16.1014C267.313 16.009 266.821 15.9243 266.276 15.8472C265.746 15.7702 265.208 15.6701 264.663 15.5469C264.133 15.4082 263.649 15.2157 263.21 14.9692C262.77 14.7073 262.415 14.3607 262.142 13.9294C261.87 13.4981 261.734 12.9281 261.734 12.2195C261.734 11.4339 261.953 10.7561 262.392 10.1861C262.831 9.60077 263.445 9.15404 264.232 8.84596C265.035 8.52246 265.981 8.36072 267.071 8.36072C267.888 8.36072 268.714 8.45315 269.547 8.638C270.38 8.82285 271.068 9.08472 271.613 9.42362L270.523 11.6187C269.948 11.2644 269.365 11.0257 268.775 10.9024C268.199 10.7638 267.624 10.6945 267.048 10.6945C266.185 10.6945 265.541 10.8254 265.117 11.0873C264.709 11.3492 264.505 11.6804 264.505 12.0809C264.505 12.4506 264.641 12.7279 264.913 12.9127C265.186 13.0976 265.541 13.2439 265.981 13.3517C266.42 13.4596 266.904 13.552 267.434 13.629C267.979 13.6906 268.517 13.7908 269.047 13.9294C269.577 14.068 270.062 14.2606 270.501 14.5071C270.955 14.7381 271.319 15.0693 271.591 15.5006C271.864 15.932 272 16.4942 272 17.1874C272 17.9576 271.773 18.6277 271.319 19.1977C270.879 19.7677 270.251 20.2144 269.433 20.5379C268.615 20.846 267.639 21 266.503 21Z" fill="white"/>
</svg>
