<svg width="849" height="312" viewBox="0 0 849 312" fill="none" xmlns="http://www.w3.org/2000/svg">
<path d="M337.626 168.72L373.081 66.8881H409.471L358.525 201H298.81L297.317 66.8881H333.893L333.334 168.72H337.626ZM487.742 201H394.064L417.763 66.8881H511.441L506.216 96.0363H446.128L441.836 121.261H491.474L486.249 150.409H436.611L432.879 172.27H492.967L487.742 201ZM577.722 66.8881C591.904 66.8881 601.981 70.0023 607.953 76.2305C612.431 80.9639 614.671 86.943 614.671 94.1678C614.671 96.6591 614.422 99.275 613.924 102.015L611.312 116.59C609.819 124.686 607.206 131.226 603.474 136.209C599.867 141.192 595.823 144.742 591.344 146.859L608.326 201H570.631L554.956 151.156H543.386L535.735 201H499.906L523.605 66.8881H577.722ZM565.966 96.0363H551.97L547.118 128.548H560.181C566.775 128.548 571.502 126.991 574.363 123.877C577.225 120.638 578.655 116.403 578.655 111.171C578.655 101.081 574.426 96.0363 565.966 96.0363ZM648.681 163.115C648.681 171.71 654.839 176.007 667.155 176.007C679.595 176.007 685.816 172.145 685.816 164.423C685.816 160.312 683.701 156.949 679.472 154.333C675.241 151.717 670.078 149.537 663.983 147.793C658.011 146.05 651.977 144.056 645.882 141.814C639.91 139.447 634.809 135.835 630.58 130.977C626.35 125.994 624.235 119.828 624.235 112.479C624.235 81.2131 644.326 65.5802 684.51 65.5802C699.189 65.5802 710.262 68.3829 717.727 73.9883C725.314 79.4691 729.11 87.1299 729.11 96.9706C729.11 100.583 728.612 104.071 727.617 107.434C726.746 110.673 725.812 112.977 724.818 114.347L723.325 116.59H690.295C693.031 113.725 694.4 110.112 694.4 105.752C694.4 97.6557 689.112 93.6073 678.538 93.6073C665.226 93.6073 658.571 97.8426 658.571 106.313C658.571 110.548 660.686 113.911 664.916 116.403C669.145 118.894 674.246 120.887 680.218 122.382C686.313 123.752 692.409 125.496 698.506 127.614C704.601 129.731 709.764 133.281 713.994 138.264C718.223 143.122 720.339 149.475 720.339 157.322C720.339 173.143 715.611 184.914 706.157 192.637C696.701 200.235 682.146 204.034 662.49 204.034C642.833 204.034 629.397 200.546 622.182 193.571C616.832 188.339 614.158 181.114 614.158 171.896C614.158 168.408 614.531 164.609 615.278 160.499L615.838 157.509H649.427L649.054 159.751C648.804 160.997 648.681 162.119 648.681 163.115ZM818.391 201H724.712L748.412 66.8881H842.09L836.865 96.0363H776.777L772.485 121.261H822.123L816.898 150.409H767.26L763.527 172.27H823.616L818.391 201Z" fill="white"/>
<path d="M34.5228 106.534C34.5228 115.129 40.6809 119.426 52.9971 119.426C65.4378 119.426 71.6581 115.565 71.6581 107.842C71.6581 103.731 69.5432 100.368 65.3133 97.7522C61.0836 95.1363 55.9207 92.9564 49.8247 91.2125C43.8532 89.4686 37.8196 87.4755 31.7236 85.2334C25.7521 82.8666 20.6515 79.2542 16.4216 74.3962C12.1919 69.4136 10.0769 63.2476 10.0769 55.8983C10.0769 24.6325 30.1686 8.99954 70.3518 8.99954C85.0318 8.99954 96.1039 11.8023 103.568 17.4077C111.157 22.8885 114.952 30.5493 114.952 40.3899C114.952 44.0023 114.454 47.4902 113.459 50.8534C112.588 54.0921 111.655 56.3966 110.659 57.7668L109.167 60.0089H76.1367C78.8737 57.144 80.2421 53.5315 80.2421 49.1718C80.2421 41.0751 74.9549 37.0267 64.3803 37.0267C51.0689 37.0267 44.4131 41.2619 44.4131 49.7323C44.4131 53.9676 46.5281 57.3308 50.7578 59.8221C54.9877 62.3133 60.0883 64.3064 66.0598 65.8012C72.1558 67.1714 78.2517 68.9154 84.3475 71.0329C90.4435 73.1505 95.6064 76.7006 99.8361 81.6833C104.066 86.5413 106.181 92.8941 106.181 100.742C106.181 116.562 101.453 128.333 91.9985 136.056C82.5437 143.655 67.9882 147.454 48.3319 147.454C28.6757 147.454 15.2398 143.965 8.02422 136.99C2.67474 131.758 0 124.534 0 115.316C0 111.828 0.373223 108.029 1.11966 103.918L1.67949 100.929H35.2692L34.896 103.171C34.6472 104.416 34.5228 105.537 34.5228 106.534ZM167.843 10L144.33 145H110.554L134.254 10H167.843ZM288.63 10L265.117 145H231.34L207.828 71.2198L195.138 145H161.362L185.061 10H219.771L242.91 79.0674L255.04 10H288.63Z" fill="white"/>
<path d="M813 34H849L845.372 52H813V34Z" fill="white"/>
<path d="M64.2173 197.968H70.9121C71.5692 197.968 72.1999 198.227 72.6686 198.688L79.4972 205.407C80.2738 206.171 81.4922 206.251 82.3612 205.594L82.9074 205.181C83.6374 204.629 83.742 203.571 83.1341 202.888C80.4496 199.874 78.7601 196.227 78.2571 192.259L65.8307 192.234L64.2173 197.968Z" fill="white"/>
<path d="M265 191V160H0V193C6.42489 193 18.4162 196.085 17.0575 208.065C15.2034 224.436 0 228.811 0 246.635C0 257.149 1.65296 265.719 5.85356 268.144L41.3498 272.426C44.495 268.004 46.5744 266.21 43.364 260.581C43.3891 258.174 43.7376 255.785 44.3952 253.472C45.9763 247.835 55.1212 230.334 58.0824 219.81H90.5233L90.5196 219.814C94.3142 219.81 97.6452 217.281 98.6693 213.621L103.5 197C108.5 190.5 128.927 193 226.979 193H231.34C238.28 240.096 274.65 301.085 284 312L310.653 294.788C302.215 284.965 270.5 243.5 265 191ZM95.3247 203.892L93.0178 212.049H93.0141C92.6944 213.175 91.6666 213.952 90.4952 213.952H62.8589C62.1151 213.952 61.4109 213.603 60.9617 213.01C60.5125 212.416 60.3688 211.646 60.57 210.93L65.8307 192.234L86.5788 192.275L86.5752 192.278C89.4319 192.278 92.1233 193.621 93.8409 195.902C95.5585 198.186 96.108 201.144 95.3247 203.892Z" fill="white"/>
<path d="M798.97 0H785.8V24.3793H623.919L623.654 10H306L297.68 52H803V24.3806L798.97 0Z" fill="white"/>
</svg>
