<svg width="675" height="675" viewBox="0 0 675 675" fill="none" xmlns="http://www.w3.org/2000/svg">
<path d="M337.5 0L350.975 209.293L407.67 7.37518L377.336 214.896L474.774 29.1784L401.957 225.858L535.878 64.4568L423.76 241.699L588.311 111.668L441.793 261.727L629.784 168.75L455.268 285.066L658.482 233.207L463.596 310.697L673.151 302.222L466.414 337.5L673.151 372.778L463.596 364.303L658.482 441.793L455.268 389.934L629.784 506.25L441.793 413.273L588.311 563.332L423.76 433.301L535.878 610.543L401.957 449.142L474.774 645.822L377.336 460.104L407.67 667.625L350.975 465.707L337.5 675L324.025 465.707L267.33 667.625L297.664 460.104L200.226 645.822L273.043 449.142L139.122 610.543L251.24 433.301L86.6886 563.332L233.207 413.273L45.2164 506.25L219.732 389.934L16.5184 441.793L211.404 364.303L1.84885 372.778L208.586 337.5L1.84885 302.222L211.404 310.697L16.5184 233.207L219.732 285.066L45.2164 168.75L233.207 261.727L86.6886 111.668L251.24 241.699L139.122 64.4568L273.043 225.858L200.226 29.1784L297.664 214.896L267.33 7.37518L324.025 209.293L337.5 0Z" fill="white"/>
<rect x="36.6387" y="36.6387" width="601.722" height="601.722" rx="300" fill="#121C14"/>
</svg>
