<svg width="515" height="91" viewBox="0 0 515 91" fill="none" xmlns="http://www.w3.org/2000/svg">
<g filter="url(#filter0_d_253_6479)">
<path d="M35.2355 76.152C29.8595 76.152 24.7075 75.448 19.7795 74.04C14.8515 72.568 10.8835 70.68 7.8755 68.376L13.1555 56.664C16.0355 58.712 19.4275 60.408 23.3315 61.752C27.2995 63.032 31.2995 63.672 35.3315 63.672C38.4035 63.672 40.8675 63.384 42.7235 62.808C44.6435 62.168 46.0515 61.304 46.9475 60.216C47.8435 59.128 48.2915 57.88 48.2915 56.472C48.2915 54.68 47.5875 53.272 46.1795 52.248C44.7715 51.16 42.9155 50.296 40.6115 49.656C38.3075 48.952 35.7475 48.312 32.9315 47.736C30.1795 47.096 27.3955 46.328 24.5795 45.432C21.8275 44.536 19.2995 43.384 16.9955 41.976C14.6915 40.568 12.8035 38.712 11.3315 36.408C9.9235 34.104 9.2195 31.16 9.2195 27.576C9.2195 23.736 10.2435 20.248 12.2915 17.112C14.4035 13.912 17.5395 11.384 21.6995 9.528C25.9235 7.608 31.2035 6.648 37.5395 6.648C41.7635 6.648 45.9235 7.16 50.0195 8.184C54.1155 9.144 57.7315 10.616 60.8675 12.6L56.0675 24.408C52.9315 22.616 49.7955 21.304 46.6595 20.472C43.5235 19.576 40.4515 19.128 37.4435 19.128C34.4355 19.128 31.9715 19.48 30.0515 20.184C28.1315 20.888 26.7555 21.816 25.9235 22.968C25.0915 24.056 24.6755 25.336 24.6755 26.808C24.6755 28.536 25.3795 29.944 26.7875 31.032C28.1955 32.056 30.0515 32.888 32.3555 33.528C34.6595 34.168 37.1875 34.808 39.9395 35.448C42.7555 36.088 45.5395 36.824 48.2915 37.656C51.1075 38.488 53.6675 39.608 55.9715 41.016C58.2755 42.424 60.1315 44.28 61.5395 46.584C63.0115 48.888 63.7475 51.8 63.7475 55.32C63.7475 59.096 62.6915 62.552 60.5795 65.688C58.4675 68.824 55.2995 71.352 51.0755 73.272C46.9155 75.192 41.6355 76.152 35.2355 76.152ZM74.3743 75V7.8H89.9263V75H74.3743ZM105.874 75V7.8H118.738L158.386 56.184H152.146V7.8H167.506V75H154.738L114.994 26.616H121.234V75H105.874ZM203.284 75L174.292 7.8H191.092L216.436 67.32H206.548L232.276 7.8H247.732L218.644 75H203.284ZM267.647 34.872H299.999V46.968H267.647V34.872ZM268.799 62.52H305.375V75H253.343V7.8H304.127V20.28H268.799V62.52ZM317.749 75V7.8H346.837C352.853 7.8 358.037 8.792 362.389 10.776C366.741 12.696 370.101 15.48 372.469 19.128C374.837 22.776 376.021 27.128 376.021 32.184C376.021 37.176 374.837 41.496 372.469 45.144C370.101 48.728 366.741 51.48 362.389 53.4C358.037 55.32 352.853 56.28 346.837 56.28H326.389L333.301 49.464V75H317.749ZM360.469 75L343.669 50.616H360.277L377.269 75H360.469ZM333.301 51.192L326.389 43.896H345.973C350.773 43.896 354.357 42.872 356.725 40.824C359.093 38.712 360.277 35.832 360.277 32.184C360.277 28.472 359.093 25.592 356.725 23.544C354.357 21.496 350.773 20.472 345.973 20.472H326.389L333.301 13.08V51.192ZM410.423 76.152C405.047 76.152 399.895 75.448 394.967 74.04C390.039 72.568 386.071 70.68 383.063 68.376L388.343 56.664C391.223 58.712 394.615 60.408 398.519 61.752C402.487 63.032 406.487 63.672 410.519 63.672C413.591 63.672 416.055 63.384 417.911 62.808C419.831 62.168 421.239 61.304 422.135 60.216C423.031 59.128 423.479 57.88 423.479 56.472C423.479 54.68 422.775 53.272 421.367 52.248C419.959 51.16 418.103 50.296 415.799 49.656C413.495 48.952 410.935 48.312 408.119 47.736C405.367 47.096 402.583 46.328 399.767 45.432C397.015 44.536 394.487 43.384 392.183 41.976C389.879 40.568 387.991 38.712 386.519 36.408C385.111 34.104 384.407 31.16 384.407 27.576C384.407 23.736 385.431 20.248 387.479 17.112C389.591 13.912 392.727 11.384 396.887 9.528C401.111 7.608 406.391 6.648 412.727 6.648C416.951 6.648 421.111 7.16 425.207 8.184C429.303 9.144 432.919 10.616 436.055 12.6L431.255 24.408C428.119 22.616 424.983 21.304 421.847 20.472C418.711 19.576 415.639 19.128 412.631 19.128C409.623 19.128 407.159 19.48 405.239 20.184C403.319 20.888 401.943 21.816 401.111 22.968C400.279 24.056 399.863 25.336 399.863 26.808C399.863 28.536 400.567 29.944 401.975 31.032C403.383 32.056 405.239 32.888 407.543 33.528C409.847 34.168 412.375 34.808 415.127 35.448C417.943 36.088 420.727 36.824 423.479 37.656C426.295 38.488 428.855 39.608 431.159 41.016C433.463 42.424 435.319 44.28 436.727 46.584C438.199 48.888 438.935 51.8 438.935 55.32C438.935 59.096 437.879 62.552 435.767 65.688C433.655 68.824 430.487 71.352 426.263 73.272C422.103 75.192 416.823 76.152 410.423 76.152ZM463.866 34.872H496.218V46.968H463.866V34.872ZM465.018 62.52H501.594V75H449.562V7.8H500.346V20.28H465.018V62.52Z" fill="url(#paint0_linear_253_6479)" shape-rendering="crispEdges"/>
</g>
<defs>
<filter id="filter0_d_253_6479" x="0.875488" y="0.64801" width="513.718" height="89.504" filterUnits="userSpaceOnUse" color-interpolation-filters="sRGB">
<feFlood flood-opacity="0" result="BackgroundImageFix"/>
<feColorMatrix in="SourceAlpha" type="matrix" values="0 0 0 0 0 0 0 0 0 0 0 0 0 0 0 0 0 0 127 0" result="hardAlpha"/>
<feOffset dx="3" dy="4"/>
<feGaussianBlur stdDeviation="5"/>
<feComposite in2="hardAlpha" operator="out"/>
<feColorMatrix type="matrix" values="0 0 0 0 0 0 0 0 0 0 0 0 0 0 0 0 0 0 0.45 0"/>
<feBlend mode="normal" in2="BackgroundImageFix" result="effect1_dropShadow_253_6479"/>
<feBlend mode="normal" in="SourceGraphic" in2="effect1_dropShadow_253_6479" result="shape"/>
</filter>
<linearGradient id="paint0_linear_253_6479" x1="255" y1="-9" x2="255" y2="84" gradientUnits="userSpaceOnUse">
<stop offset="0.119792" stop-color="#88BFFF" stop-opacity="0.22"/>
<stop offset="0.348958" stop-color="#EAF4FF"/>
<stop offset="0.604167" stop-color="white"/>
<stop offset="0.90625" stop-color="#725BFF" stop-opacity="0.46"/>
</linearGradient>
</defs>
</svg>
