<svg width="496" height="93" viewBox="0 0 496 93" fill="none" xmlns="http://www.w3.org/2000/svg">
<g clip-path="url(#clip0_441_9412)">
<g filter="url(#filter0_d_441_9412)">
<path d="M31.2355 85.152C25.8595 85.152 20.7075 84.448 15.7795 83.04C10.8515 81.568 6.8835 79.68 3.8755 77.376L9.1555 65.664C12.0355 67.712 15.4275 69.408 19.3315 70.752C23.2995 72.032 27.2995 72.672 31.3315 72.672C34.4035 72.672 36.8675 72.384 38.7235 71.808C40.6435 71.168 42.0515 70.304 42.9475 69.216C43.8435 68.128 44.2915 66.88 44.2915 65.472C44.2915 63.68 43.5875 62.272 42.1795 61.248C40.7715 60.16 38.9155 59.296 36.6115 58.656C34.3075 57.952 31.7475 57.312 28.9315 56.736C26.1795 56.096 23.3955 55.328 20.5795 54.432C17.8275 53.536 15.2995 52.384 12.9955 50.976C10.6915 49.568 8.8035 47.712 7.3315 45.408C5.9235 43.104 5.2195 40.16 5.2195 36.576C5.2195 32.736 6.2435 29.248 8.2915 26.112C10.4035 22.912 13.5395 20.384 17.6995 18.528C21.9235 16.608 27.2035 15.648 33.5395 15.648C37.7635 15.648 41.9235 16.16 46.0195 17.184C50.1155 18.144 53.7315 19.616 56.8675 21.6L52.0675 33.408C48.9315 31.616 45.7955 30.304 42.6595 29.472C39.5235 28.576 36.4515 28.128 33.4435 28.128C30.4355 28.128 27.9715 28.48 26.0515 29.184C24.1315 29.888 22.7555 30.816 21.9235 31.968C21.0915 33.056 20.6755 34.336 20.6755 35.808C20.6755 37.536 21.3795 38.944 22.7875 40.032C24.1955 41.056 26.0515 41.888 28.3555 42.528C30.6595 43.168 33.1875 43.808 35.9395 44.448C38.7555 45.088 41.5395 45.824 44.2915 46.656C47.1075 47.488 49.6675 48.608 51.9715 50.016C54.2755 51.424 56.1315 53.28 57.5395 55.584C59.0115 57.888 59.7475 60.8 59.7475 64.32C59.7475 68.096 58.6915 71.552 56.5795 74.688C54.4675 77.824 51.2995 80.352 47.0755 82.272C42.9155 84.192 37.6355 85.152 31.2355 85.152ZM70.3743 84V16.8H85.9263V84H70.3743ZM101.874 84V16.8H114.738L154.386 65.184H148.146V16.8H163.506V84H150.738L110.994 35.616H117.234V84H101.874ZM199.284 84L170.292 16.8H187.092L212.436 76.32H202.548L228.276 16.8H243.732L214.644 84H199.284ZM263.647 43.872H295.999V55.968H263.647V43.872ZM264.799 71.52H301.375V84H249.343V16.8H300.127V29.28H264.799V71.52ZM313.749 84V16.8H342.837C348.853 16.8 354.037 17.792 358.389 19.776C362.741 21.696 366.101 24.48 368.469 28.128C370.837 31.776 372.021 36.128 372.021 41.184C372.021 46.176 370.837 50.496 368.469 54.144C366.101 57.728 362.741 60.48 358.389 62.4C354.037 64.32 348.853 65.28 342.837 65.28H322.389L329.301 58.464V84H313.749ZM356.469 84L339.669 59.616H356.277L373.269 84H356.469ZM329.301 60.192L322.389 52.896H341.973C346.773 52.896 350.357 51.872 352.725 49.824C355.093 47.712 356.277 44.832 356.277 41.184C356.277 37.472 355.093 34.592 352.725 32.544C350.357 30.496 346.773 29.472 341.973 29.472H322.389L329.301 22.08V60.192ZM406.423 85.152C401.047 85.152 395.895 84.448 390.967 83.04C386.039 81.568 382.071 79.68 379.063 77.376L384.343 65.664C387.223 67.712 390.615 69.408 394.519 70.752C398.487 72.032 402.487 72.672 406.519 72.672C409.591 72.672 412.055 72.384 413.911 71.808C415.831 71.168 417.239 70.304 418.135 69.216C419.031 68.128 419.479 66.88 419.479 65.472C419.479 63.68 418.775 62.272 417.367 61.248C415.959 60.16 414.103 59.296 411.799 58.656C409.495 57.952 406.935 57.312 404.119 56.736C401.367 56.096 398.583 55.328 395.767 54.432C393.015 53.536 390.487 52.384 388.183 50.976C385.879 49.568 383.991 47.712 382.519 45.408C381.111 43.104 380.407 40.16 380.407 36.576C380.407 32.736 381.431 29.248 383.479 26.112C385.591 22.912 388.727 20.384 392.887 18.528C397.111 16.608 402.391 15.648 408.727 15.648C412.951 15.648 417.111 16.16 421.207 17.184C425.303 18.144 428.919 19.616 432.055 21.6L427.255 33.408C424.119 31.616 420.983 30.304 417.847 29.472C414.711 28.576 411.639 28.128 408.631 28.128C405.623 28.128 403.159 28.48 401.239 29.184C399.319 29.888 397.943 30.816 397.111 31.968C396.279 33.056 395.863 34.336 395.863 35.808C395.863 37.536 396.567 38.944 397.975 40.032C399.383 41.056 401.239 41.888 403.543 42.528C405.847 43.168 408.375 43.808 411.127 44.448C413.943 45.088 416.727 45.824 419.479 46.656C422.295 47.488 424.855 48.608 427.159 50.016C429.463 51.424 431.319 53.28 432.727 55.584C434.199 57.888 434.935 60.8 434.935 64.32C434.935 68.096 433.879 71.552 431.767 74.688C429.655 77.824 426.487 80.352 422.263 82.272C418.103 84.192 412.823 85.152 406.423 85.152ZM459.866 43.872H492.218V55.968H459.866V43.872ZM461.018 71.52H497.594V84H445.562V16.8H496.346V29.28H461.018V71.52Z" fill="url(#paint0_linear_441_9412)" shape-rendering="crispEdges"/>
</g>
</g>
<defs>
<filter id="filter0_d_441_9412" x="-3.12451" y="9.64795" width="513.718" height="89.504" filterUnits="userSpaceOnUse" color-interpolation-filters="sRGB">
<feFlood flood-opacity="0" result="BackgroundImageFix"/>
<feColorMatrix in="SourceAlpha" type="matrix" values="0 0 0 0 0 0 0 0 0 0 0 0 0 0 0 0 0 0 127 0" result="hardAlpha"/>
<feOffset dx="3" dy="4"/>
<feGaussianBlur stdDeviation="5"/>
<feComposite in2="hardAlpha" operator="out"/>
<feColorMatrix type="matrix" values="0 0 0 0 0 0 0 0 0 0 0 0 0 0 0 0 0 0 0.45 0"/>
<feBlend mode="normal" in2="BackgroundImageFix" result="effect1_dropShadow_441_9412"/>
<feBlend mode="normal" in="SourceGraphic" in2="effect1_dropShadow_441_9412" result="shape"/>
</filter>
<linearGradient id="paint0_linear_441_9412" x1="251" y1="0" x2="251" y2="93" gradientUnits="userSpaceOnUse">
<stop offset="0.119792" stop-color="#88BFFF" stop-opacity="0.22"/>
<stop offset="0.348958" stop-color="#EAF4FF"/>
<stop offset="0.604167" stop-color="white"/>
<stop offset="0.90625" stop-color="#725BFF" stop-opacity="0.46"/>
</linearGradient>
<clipPath id="clip0_441_9412">
<rect width="496" height="93" fill="white"/>
</clipPath>
</defs>
</svg>
