<svg width="496" height="145" viewBox="0 0 496 145" fill="none" xmlns="http://www.w3.org/2000/svg">
<g clip-path="url(#clip0_441_9412)">
<g filter="url(#filter0_d_441_9412)">
<path d="M31.2355 85.152C25.8595 85.152 20.7075 84.448 15.7795 83.04C10.8515 81.568 6.8835 79.68 3.8755 77.376L9.1555 65.664C12.0355 67.712 15.4275 69.408 19.3315 70.752C23.2995 72.032 27.2995 72.672 31.3315 72.672C34.4035 72.672 36.8675 72.384 38.7235 71.808C40.6435 71.168 42.0515 70.304 42.9475 69.216C43.8435 68.128 44.2915 66.88 44.2915 65.472C44.2915 63.68 43.5875 62.272 42.1795 61.248C40.7715 60.16 38.9155 59.296 36.6115 58.656C34.3075 57.952 31.7475 57.312 28.9315 56.736C26.1795 56.096 23.3955 55.328 20.5795 54.432C17.8275 53.536 15.2995 52.384 12.9955 50.976C10.6915 49.568 8.8035 47.712 7.3315 45.408C5.9235 43.104 5.2195 40.16 5.2195 36.576C5.2195 32.736 6.2435 29.248 8.2915 26.112C10.4035 22.912 13.5395 20.384 17.6995 18.528C21.9235 16.608 27.2035 15.648 33.5395 15.648C37.7635 15.648 41.9235 16.16 46.0195 17.184C50.1155 18.144 53.7315 19.616 56.8675 21.6L52.0675 33.408C48.9315 31.616 45.7955 30.304 42.6595 29.472C39.5235 28.576 36.4515 28.128 33.4435 28.128C30.4355 28.128 27.9715 28.48 26.0515 29.184C24.1315 29.888 22.7555 30.816 21.9235 31.968C21.0915 33.056 20.6755 34.336 20.6755 35.808C20.6755 37.536 21.3795 38.944 22.7875 40.032C24.1955 41.056 26.0515 41.888 28.3555 42.528C30.6595 43.168 33.1875 43.808 35.9395 44.448C38.7555 45.088 41.5395 45.824 44.2915 46.656C47.1075 47.488 49.6675 48.608 51.9715 50.016C54.2755 51.424 56.1315 53.28 57.5395 55.584C59.0115 57.888 59.7475 60.8 59.7475 64.32C59.7475 68.096 58.6915 71.552 56.5795 74.688C54.4675 77.824 51.2995 80.352 47.0755 82.272C42.9155 84.192 37.6355 85.152 31.2355 85.152ZM70.3743 84V16.8H85.9263V84H70.3743ZM101.874 84V16.8H114.738L154.386 65.184H148.146V16.8H163.506V84H150.738L110.994 35.616H117.234V84H101.874ZM199.284 84L170.292 16.8H187.092L212.436 76.32H202.548L228.276 16.8H243.732L214.644 84H199.284ZM263.647 43.872H295.999V55.968H263.647V43.872ZM264.799 71.52H301.375V84H249.343V16.8H300.127V29.28H264.799V71.52ZM313.749 84V16.8H342.837C348.853 16.8 354.037 17.792 358.389 19.776C362.741 21.696 366.101 24.48 368.469 28.128C370.837 31.776 372.021 36.128 372.021 41.184C372.021 46.176 370.837 50.496 368.469 54.144C366.101 57.728 362.741 60.48 358.389 62.4C354.037 64.32 348.853 65.28 342.837 65.28H322.389L329.301 58.464V84H313.749ZM356.469 84L339.669 59.616H356.277L373.269 84H356.469ZM329.301 60.192L322.389 52.896H341.973C346.773 52.896 350.357 51.872 352.725 49.824C355.093 47.712 356.277 44.832 356.277 41.184C356.277 37.472 355.093 34.592 352.725 32.544C350.357 30.496 346.773 29.472 341.973 29.472H322.389L329.301 22.08V60.192ZM406.423 85.152C401.047 85.152 395.895 84.448 390.967 83.04C386.039 81.568 382.071 79.68 379.063 77.376L384.343 65.664C387.223 67.712 390.615 69.408 394.519 70.752C398.487 72.032 402.487 72.672 406.519 72.672C409.591 72.672 412.055 72.384 413.911 71.808C415.831 71.168 417.239 70.304 418.135 69.216C419.031 68.128 419.479 66.88 419.479 65.472C419.479 63.68 418.775 62.272 417.367 61.248C415.959 60.16 414.103 59.296 411.799 58.656C409.495 57.952 406.935 57.312 404.119 56.736C401.367 56.096 398.583 55.328 395.767 54.432C393.015 53.536 390.487 52.384 388.183 50.976C385.879 49.568 383.991 47.712 382.519 45.408C381.111 43.104 380.407 40.16 380.407 36.576C380.407 32.736 381.431 29.248 383.479 26.112C385.591 22.912 388.727 20.384 392.887 18.528C397.111 16.608 402.391 15.648 408.727 15.648C412.951 15.648 417.111 16.16 421.207 17.184C425.303 18.144 428.919 19.616 432.055 21.6L427.255 33.408C424.119 31.616 420.983 30.304 417.847 29.472C414.711 28.576 411.639 28.128 408.631 28.128C405.623 28.128 403.159 28.48 401.239 29.184C399.319 29.888 397.943 30.816 397.111 31.968C396.279 33.056 395.863 34.336 395.863 35.808C395.863 37.536 396.567 38.944 397.975 40.032C399.383 41.056 401.239 41.888 403.543 42.528C405.847 43.168 408.375 43.808 411.127 44.448C413.943 45.088 416.727 45.824 419.479 46.656C422.295 47.488 424.855 48.608 427.159 50.016C429.463 51.424 431.319 53.28 432.727 55.584C434.199 57.888 434.935 60.8 434.935 64.32C434.935 68.096 433.879 71.552 431.767 74.688C429.655 77.824 426.487 80.352 422.263 82.272C418.103 84.192 412.823 85.152 406.423 85.152ZM459.866 43.872H492.218V55.968H459.866V43.872ZM461.018 71.52H497.594V84H445.562V16.8H496.346V29.28H461.018V71.52Z" fill="url(#paint0_linear_441_9412)" shape-rendering="crispEdges"/>
</g>
<g filter="url(#filter1_d_441_9412)">
<path d="M14.496 131V109.76H6.144V105.8H27.528V109.76H19.176V131H14.496ZM41.5163 111.56C43.0523 111.56 44.4203 111.86 45.6203 112.46C46.8443 113.06 47.8043 113.984 48.5003 115.232C49.1963 116.456 49.5443 118.04 49.5443 119.984V131H45.0443V120.56C45.0443 118.856 44.6363 117.584 43.8203 116.744C43.0283 115.904 41.9123 115.484 40.4723 115.484C39.4163 115.484 38.4803 115.7 37.6643 116.132C36.8483 116.564 36.2123 117.212 35.7563 118.076C35.3243 118.916 35.1083 119.984 35.1083 121.28V131H30.6083V104.288H35.1083V116.96L34.1363 115.376C34.8083 114.152 35.7803 113.216 37.0523 112.568C38.3483 111.896 39.8363 111.56 41.5163 111.56ZM64.3239 131.252C62.1879 131.252 60.3159 130.832 58.7079 129.992C57.1239 129.128 55.8879 127.952 54.9999 126.464C54.1359 124.976 53.7039 123.284 53.7039 121.388C53.7039 119.468 54.1239 117.776 54.9639 116.312C55.8279 114.824 57.0039 113.66 58.4919 112.82C60.0039 111.98 61.7199 111.56 63.6399 111.56C65.5119 111.56 67.1799 111.968 68.6439 112.784C70.1079 113.6 71.2599 114.752 72.0999 116.24C72.9399 117.728 73.3599 119.48 73.3599 121.496C73.3599 121.688 73.3479 121.904 73.3239 122.144C73.3239 122.384 73.3119 122.612 73.2879 122.828H57.2679V119.84H70.9119L69.1479 120.776C69.1719 119.672 68.9439 118.7 68.4639 117.86C67.9839 117.02 67.3239 116.36 66.4839 115.88C65.6679 115.4 64.7199 115.16 63.6399 115.16C62.5359 115.16 61.5639 115.4 60.7239 115.88C59.9079 116.36 59.2599 117.032 58.7799 117.896C58.3239 118.736 58.0959 119.732 58.0959 120.884V121.604C58.0959 122.756 58.3599 123.776 58.8879 124.664C59.4159 125.552 60.1599 126.236 61.1199 126.716C62.0799 127.196 63.1839 127.436 64.4319 127.436C65.5119 127.436 66.4839 127.268 67.3479 126.932C68.2119 126.596 68.9799 126.068 69.6519 125.348L72.0639 128.12C71.1999 129.128 70.1079 129.908 68.7879 130.46C67.4919 130.988 66.0039 131.252 64.3239 131.252ZM90.2957 131V107.6L92.3477 109.724H84.9677V105.8H94.9757V131H90.2957ZM107.283 131.252C105.675 131.252 104.127 131.048 102.639 130.64C101.175 130.208 100.011 129.692 99.1466 129.092L100.875 125.672C101.739 126.224 102.771 126.68 103.971 127.04C105.171 127.4 106.371 127.58 107.571 127.58C108.987 127.58 110.007 127.388 110.631 127.004C111.279 126.62 111.603 126.104 111.603 125.456C111.603 124.928 111.387 124.532 110.955 124.268C110.523 123.98 109.959 123.764 109.263 123.62C108.567 123.476 107.787 123.344 106.923 123.224C106.083 123.104 105.231 122.948 104.367 122.756C103.527 122.54 102.759 122.24 102.063 121.856C101.367 121.448 100.803 120.908 100.371 120.236C99.9386 119.564 99.7226 118.676 99.7226 117.572C99.7226 116.348 100.071 115.292 100.767 114.404C101.463 113.492 102.435 112.796 103.683 112.316C104.955 111.812 106.455 111.56 108.183 111.56C109.479 111.56 110.787 111.704 112.107 111.992C113.427 112.28 114.519 112.688 115.383 113.216L113.655 116.636C112.743 116.084 111.819 115.712 110.883 115.52C109.971 115.304 109.059 115.196 108.147 115.196C106.779 115.196 105.759 115.4 105.087 115.808C104.439 116.216 104.115 116.732 104.115 117.356C104.115 117.932 104.331 118.364 104.763 118.652C105.195 118.94 105.759 119.168 106.455 119.336C107.151 119.504 107.919 119.648 108.759 119.768C109.623 119.864 110.475 120.02 111.315 120.236C112.155 120.452 112.923 120.752 113.619 121.136C114.339 121.496 114.915 122.012 115.347 122.684C115.779 123.356 115.995 124.232 115.995 125.312C115.995 126.512 115.635 127.556 114.915 128.444C114.219 129.332 113.223 130.028 111.927 130.532C110.631 131.012 109.083 131.252 107.283 131.252ZM127.106 131.252C124.994 131.252 123.362 130.712 122.21 129.632C121.058 128.528 120.482 126.908 120.482 124.772V107.528H124.982V124.664C124.982 125.576 125.21 126.284 125.666 126.788C126.146 127.292 126.806 127.544 127.646 127.544C128.654 127.544 129.494 127.28 130.166 126.752L131.426 129.956C130.898 130.388 130.25 130.712 129.482 130.928C128.714 131.144 127.922 131.252 127.106 131.252ZM117.314 115.52V111.92H130.13V115.52H117.314ZM145.509 131V105.8H155.877C158.109 105.8 160.017 106.16 161.601 106.88C163.209 107.6 164.445 108.632 165.309 109.976C166.173 111.32 166.605 112.916 166.605 114.764C166.605 116.612 166.173 118.208 165.309 119.552C164.445 120.872 163.209 121.892 161.601 122.612C160.017 123.308 158.109 123.656 155.877 123.656H148.101L150.189 121.532V131H145.509ZM161.997 131L155.625 121.856H160.629L167.037 131H161.997ZM150.189 122.036L148.101 119.804H155.661C157.725 119.804 159.273 119.36 160.305 118.472C161.361 117.584 161.889 116.348 161.889 114.764C161.889 113.156 161.361 111.92 160.305 111.056C159.273 110.192 157.725 109.76 155.661 109.76H148.101L150.189 107.456V122.036ZM170.402 122.864V119.12H180.302V122.864H170.402ZM185.657 131V105.8H196.025C198.257 105.8 200.165 106.16 201.749 106.88C203.357 107.6 204.593 108.632 205.457 109.976C206.321 111.32 206.753 112.916 206.753 114.764C206.753 116.612 206.321 118.208 205.457 119.552C204.593 120.872 203.357 121.892 201.749 122.612C200.165 123.308 198.257 123.656 196.025 123.656H188.249L190.337 121.532V131H185.657ZM202.145 131L195.773 121.856H200.777L207.185 131H202.145ZM190.337 122.036L188.249 119.804H195.809C197.873 119.804 199.421 119.36 200.453 118.472C201.509 117.584 202.037 116.348 202.037 114.764C202.037 113.156 201.509 111.92 200.453 111.056C199.421 110.192 197.873 109.76 195.809 109.76H188.249L190.337 107.456V122.036ZM223.226 131V127.112L222.974 126.284V119.48C222.974 118.16 222.578 117.14 221.786 116.42C220.994 115.676 219.794 115.304 218.186 115.304C217.106 115.304 216.038 115.472 214.982 115.808C213.95 116.144 213.074 116.612 212.354 117.212L210.59 113.936C211.622 113.144 212.846 112.556 214.262 112.172C215.702 111.764 217.19 111.56 218.726 111.56C221.51 111.56 223.658 112.232 225.17 113.576C226.706 114.896 227.474 116.948 227.474 119.732V131H223.226ZM217.178 131.252C215.738 131.252 214.478 131.012 213.398 130.532C212.318 130.028 211.478 129.344 210.878 128.48C210.302 127.592 210.014 126.596 210.014 125.492C210.014 124.412 210.266 123.44 210.77 122.576C211.298 121.712 212.15 121.028 213.326 120.524C214.502 120.02 216.062 119.768 218.006 119.768H223.586V122.756H218.33C216.794 122.756 215.762 123.008 215.234 123.512C214.706 123.992 214.442 124.592 214.442 125.312C214.442 126.128 214.766 126.776 215.414 127.256C216.062 127.736 216.962 127.976 218.114 127.976C219.218 127.976 220.202 127.724 221.066 127.22C221.954 126.716 222.59 125.972 222.974 124.988L223.73 127.688C223.298 128.816 222.518 129.692 221.39 130.316C220.286 130.94 218.882 131.252 217.178 131.252ZM240.485 131.252C238.373 131.252 236.741 130.712 235.589 129.632C234.437 128.528 233.861 126.908 233.861 124.772V107.528H238.361V124.664C238.361 125.576 238.589 126.284 239.045 126.788C239.525 127.292 240.185 127.544 241.025 127.544C242.033 127.544 242.873 127.28 243.545 126.752L244.805 129.956C244.277 130.388 243.629 130.712 242.861 130.928C242.093 131.144 241.301 131.252 240.485 131.252ZM230.693 115.52V111.92H243.509V115.52H230.693ZM256.91 131.252C254.774 131.252 252.902 130.832 251.294 129.992C249.71 129.128 248.474 127.952 247.586 126.464C246.722 124.976 246.29 123.284 246.29 121.388C246.29 119.468 246.71 117.776 247.55 116.312C248.414 114.824 249.59 113.66 251.078 112.82C252.59 111.98 254.306 111.56 256.226 111.56C258.098 111.56 259.766 111.968 261.23 112.784C262.694 113.6 263.846 114.752 264.686 116.24C265.526 117.728 265.946 119.48 265.946 121.496C265.946 121.688 265.934 121.904 265.91 122.144C265.91 122.384 265.898 122.612 265.874 122.828H249.854V119.84H263.498L261.734 120.776C261.758 119.672 261.53 118.7 261.05 117.86C260.57 117.02 259.91 116.36 259.07 115.88C258.254 115.4 257.306 115.16 256.226 115.16C255.122 115.16 254.15 115.4 253.31 115.88C252.494 116.36 251.846 117.032 251.366 117.896C250.91 118.736 250.682 119.732 250.682 120.884V121.604C250.682 122.756 250.946 123.776 251.474 124.664C252.002 125.552 252.746 126.236 253.706 126.716C254.666 127.196 255.77 127.436 257.018 127.436C258.098 127.436 259.07 127.268 259.934 126.932C260.798 126.596 261.566 126.068 262.238 125.348L264.65 128.12C263.786 129.128 262.694 129.908 261.374 130.46C260.078 130.988 258.59 131.252 256.91 131.252ZM278.404 131.252C276.556 131.252 274.888 130.844 273.4 130.028C271.936 129.188 270.784 128.036 269.944 126.572C269.104 125.108 268.684 123.38 268.684 121.388C268.684 119.396 269.104 117.668 269.944 116.204C270.784 114.74 271.936 113.6 273.4 112.784C274.888 111.968 276.556 111.56 278.404 111.56C280.012 111.56 281.452 111.92 282.724 112.64C283.996 113.336 285.004 114.404 285.748 115.844C286.492 117.284 286.864 119.132 286.864 121.388C286.864 123.62 286.504 125.468 285.784 126.932C285.064 128.372 284.068 129.452 282.796 130.172C281.524 130.892 280.06 131.252 278.404 131.252ZM278.944 127.4C280.024 127.4 280.984 127.16 281.824 126.68C282.688 126.2 283.372 125.504 283.876 124.592C284.404 123.68 284.668 122.612 284.668 121.388C284.668 120.14 284.404 119.072 283.876 118.184C283.372 117.272 282.688 116.576 281.824 116.096C280.984 115.616 280.024 115.376 278.944 115.376C277.864 115.376 276.892 115.616 276.028 116.096C275.188 116.576 274.504 117.272 273.976 118.184C273.472 119.072 273.22 120.14 273.22 121.388C273.22 122.612 273.472 123.68 273.976 124.592C274.504 125.504 275.188 126.2 276.028 126.68C276.892 127.16 277.864 127.4 278.944 127.4ZM284.776 131V126.464L284.956 121.352L284.596 116.24V104.288H289.06V131H284.776ZM305.364 131V105.8H309.216L320.232 124.196H318.216L329.052 105.8H332.904L332.94 131H328.512L328.476 112.748H329.412L320.196 128.12H318.108L308.748 112.748H309.828V131H305.364ZM348.351 131.252C346.215 131.252 344.343 130.832 342.735 129.992C341.151 129.128 339.915 127.952 339.027 126.464C338.163 124.976 337.731 123.284 337.731 121.388C337.731 119.468 338.151 117.776 338.991 116.312C339.855 114.824 341.031 113.66 342.519 112.82C344.031 111.98 345.747 111.56 347.667 111.56C349.539 111.56 351.207 111.968 352.671 112.784C354.135 113.6 355.287 114.752 356.127 116.24C356.967 117.728 357.387 119.48 357.387 121.496C357.387 121.688 357.375 121.904 357.351 122.144C357.351 122.384 357.339 122.612 357.315 122.828H341.295V119.84H354.939L353.175 120.776C353.199 119.672 352.971 118.7 352.491 117.86C352.011 117.02 351.351 116.36 350.511 115.88C349.695 115.4 348.747 115.16 347.667 115.16C346.563 115.16 345.591 115.4 344.751 115.88C343.935 116.36 343.287 117.032 342.807 117.896C342.351 118.736 342.123 119.732 342.123 120.884V121.604C342.123 122.756 342.387 123.776 342.915 124.664C343.443 125.552 344.187 126.236 345.147 126.716C346.107 127.196 347.211 127.436 348.459 127.436C349.539 127.436 350.511 127.268 351.375 126.932C352.239 126.596 353.007 126.068 353.679 125.348L356.091 128.12C355.227 129.128 354.135 129.908 352.815 130.46C351.519 130.988 350.031 131.252 348.351 131.252ZM368.946 131.252C366.834 131.252 365.202 130.712 364.05 129.632C362.898 128.528 362.322 126.908 362.322 124.772V107.528H366.822V124.664C366.822 125.576 367.05 126.284 367.506 126.788C367.986 127.292 368.646 127.544 369.486 127.544C370.494 127.544 371.334 127.28 372.006 126.752L373.266 129.956C372.738 130.388 372.09 130.712 371.322 130.928C370.554 131.144 369.762 131.252 368.946 131.252ZM359.154 115.52V111.92H371.97V115.52H359.154ZM388.812 131V127.112L388.56 126.284V119.48C388.56 118.16 388.164 117.14 387.372 116.42C386.58 115.676 385.38 115.304 383.772 115.304C382.692 115.304 381.624 115.472 380.568 115.808C379.536 116.144 378.66 116.612 377.94 117.212L376.176 113.936C377.208 113.144 378.432 112.556 379.848 112.172C381.288 111.764 382.776 111.56 384.312 111.56C387.096 111.56 389.244 112.232 390.756 113.576C392.292 114.896 393.06 116.948 393.06 119.732V131H388.812ZM382.764 131.252C381.324 131.252 380.064 131.012 378.984 130.532C377.904 130.028 377.064 129.344 376.464 128.48C375.888 127.592 375.6 126.596 375.6 125.492C375.6 124.412 375.852 123.44 376.356 122.576C376.884 121.712 377.736 121.028 378.912 120.524C380.088 120.02 381.648 119.768 383.592 119.768H389.172V122.756H383.916C382.38 122.756 381.348 123.008 380.82 123.512C380.292 123.992 380.028 124.592 380.028 125.312C380.028 126.128 380.352 126.776 381 127.256C381.648 127.736 382.548 127.976 383.7 127.976C384.804 127.976 385.788 127.724 386.652 127.22C387.54 126.716 388.176 125.972 388.56 124.988L389.316 127.688C388.884 128.816 388.104 129.692 386.976 130.316C385.872 130.94 384.468 131.252 382.764 131.252ZM403.595 131L395.351 111.776H400.031L407.123 128.732H404.819L412.163 111.776H416.483L408.239 131H403.595ZM427.804 131.252C425.668 131.252 423.796 130.832 422.188 129.992C420.604 129.128 419.368 127.952 418.48 126.464C417.616 124.976 417.184 123.284 417.184 121.388C417.184 119.468 417.604 117.776 418.444 116.312C419.308 114.824 420.484 113.66 421.972 112.82C423.484 111.98 425.2 111.56 427.12 111.56C428.992 111.56 430.66 111.968 432.124 112.784C433.588 113.6 434.74 114.752 435.58 116.24C436.42 117.728 436.84 119.48 436.84 121.496C436.84 121.688 436.828 121.904 436.804 122.144C436.804 122.384 436.792 122.612 436.768 122.828H420.748V119.84H434.392L432.628 120.776C432.652 119.672 432.424 118.7 431.944 117.86C431.464 117.02 430.804 116.36 429.964 115.88C429.148 115.4 428.2 115.16 427.12 115.16C426.016 115.16 425.044 115.4 424.204 115.88C423.388 116.36 422.74 117.032 422.26 117.896C421.804 118.736 421.576 119.732 421.576 120.884V121.604C421.576 122.756 421.84 123.776 422.368 124.664C422.896 125.552 423.64 126.236 424.6 126.716C425.56 127.196 426.664 127.436 427.912 127.436C428.992 127.436 429.964 127.268 430.828 126.932C431.692 126.596 432.46 126.068 433.132 125.348L435.544 128.12C434.68 129.128 433.588 129.908 432.268 130.46C430.972 130.988 429.484 131.252 427.804 131.252ZM441.163 131V111.776H445.447V117.068L444.943 115.52C445.519 114.224 446.419 113.24 447.643 112.568C448.891 111.896 450.439 111.56 452.287 111.56V115.844C452.095 115.796 451.915 115.772 451.747 115.772C451.579 115.748 451.411 115.736 451.243 115.736C449.539 115.736 448.183 116.24 447.175 117.248C446.167 118.232 445.663 119.708 445.663 121.676V131H441.163ZM462.22 131.252C460.612 131.252 459.064 131.048 457.576 130.64C456.112 130.208 454.948 129.692 454.084 129.092L455.812 125.672C456.676 126.224 457.708 126.68 458.908 127.04C460.108 127.4 461.308 127.58 462.508 127.58C463.924 127.58 464.944 127.388 465.568 127.004C466.216 126.62 466.54 126.104 466.54 125.456C466.54 124.928 466.324 124.532 465.892 124.268C465.46 123.98 464.896 123.764 464.2 123.62C463.504 123.476 462.724 123.344 461.86 123.224C461.02 123.104 460.168 122.948 459.304 122.756C458.464 122.54 457.696 122.24 457 121.856C456.304 121.448 455.74 120.908 455.308 120.236C454.876 119.564 454.66 118.676 454.66 117.572C454.66 116.348 455.008 115.292 455.704 114.404C456.4 113.492 457.372 112.796 458.62 112.316C459.892 111.812 461.392 111.56 463.12 111.56C464.416 111.56 465.724 111.704 467.044 111.992C468.364 112.28 469.456 112.688 470.32 113.216L468.592 116.636C467.68 116.084 466.756 115.712 465.82 115.52C464.908 115.304 463.996 115.196 463.084 115.196C461.716 115.196 460.696 115.4 460.024 115.808C459.376 116.216 459.052 116.732 459.052 117.356C459.052 117.932 459.268 118.364 459.7 118.652C460.132 118.94 460.696 119.168 461.392 119.336C462.088 119.504 462.856 119.648 463.696 119.768C464.56 119.864 465.412 120.02 466.252 120.236C467.092 120.452 467.86 120.752 468.556 121.136C469.276 121.496 469.852 122.012 470.284 122.684C470.716 123.356 470.932 124.232 470.932 125.312C470.932 126.512 470.572 127.556 469.852 128.444C469.156 129.332 468.16 130.028 466.864 130.532C465.568 131.012 464.02 131.252 462.22 131.252ZM483.843 131.252C481.707 131.252 479.835 130.832 478.227 129.992C476.643 129.128 475.407 127.952 474.519 126.464C473.655 124.976 473.223 123.284 473.223 121.388C473.223 119.468 473.643 117.776 474.483 116.312C475.347 114.824 476.523 113.66 478.011 112.82C479.523 111.98 481.239 111.56 483.159 111.56C485.031 111.56 486.699 111.968 488.163 112.784C489.627 113.6 490.779 114.752 491.619 116.24C492.459 117.728 492.879 119.48 492.879 121.496C492.879 121.688 492.867 121.904 492.843 122.144C492.843 122.384 492.831 122.612 492.807 122.828H476.787V119.84H490.431L488.667 120.776C488.691 119.672 488.463 118.7 487.983 117.86C487.503 117.02 486.843 116.36 486.003 115.88C485.187 115.4 484.239 115.16 483.159 115.16C482.055 115.16 481.083 115.4 480.243 115.88C479.427 116.36 478.779 117.032 478.299 117.896C477.843 118.736 477.615 119.732 477.615 120.884V121.604C477.615 122.756 477.879 123.776 478.407 124.664C478.935 125.552 479.679 126.236 480.639 126.716C481.599 127.196 482.703 127.436 483.951 127.436C485.031 127.436 486.003 127.268 486.867 126.932C487.731 126.596 488.499 126.068 489.171 125.348L491.583 128.12C490.719 129.128 489.627 129.908 488.307 130.46C487.011 130.988 485.523 131.252 483.843 131.252Z" fill="white"/>
</g>
</g>
<defs>
<filter id="filter0_d_441_9412" x="-3.12451" y="9.64795" width="513.718" height="89.504" filterUnits="userSpaceOnUse" color-interpolation-filters="sRGB">
<feFlood flood-opacity="0" result="BackgroundImageFix"/>
<feColorMatrix in="SourceAlpha" type="matrix" values="0 0 0 0 0 0 0 0 0 0 0 0 0 0 0 0 0 0 127 0" result="hardAlpha"/>
<feOffset dx="3" dy="4"/>
<feGaussianBlur stdDeviation="5"/>
<feComposite in2="hardAlpha" operator="out"/>
<feColorMatrix type="matrix" values="0 0 0 0 0 0 0 0 0 0 0 0 0 0 0 0 0 0 0.45 0"/>
<feBlend mode="normal" in2="BackgroundImageFix" result="effect1_dropShadow_441_9412"/>
<feBlend mode="normal" in="SourceGraphic" in2="effect1_dropShadow_441_9412" result="shape"/>
</filter>
<filter id="filter1_d_441_9412" x="-0.855957" y="98.288" width="506.735" height="46.964" filterUnits="userSpaceOnUse" color-interpolation-filters="sRGB">
<feFlood flood-opacity="0" result="BackgroundImageFix"/>
<feColorMatrix in="SourceAlpha" type="matrix" values="0 0 0 0 0 0 0 0 0 0 0 0 0 0 0 0 0 0 127 0" result="hardAlpha"/>
<feOffset dx="3" dy="4"/>
<feGaussianBlur stdDeviation="5"/>
<feComposite in2="hardAlpha" operator="out"/>
<feColorMatrix type="matrix" values="0 0 0 0 0 0 0 0 0 0 0 0 0 0 0 0 0 0 0.45 0"/>
<feBlend mode="normal" in2="BackgroundImageFix" result="effect1_dropShadow_441_9412"/>
<feBlend mode="normal" in="SourceGraphic" in2="effect1_dropShadow_441_9412" result="shape"/>
</filter>
<linearGradient id="paint0_linear_441_9412" x1="251" y1="0" x2="251" y2="93" gradientUnits="userSpaceOnUse">
<stop offset="0.119792" stop-color="#88BFFF" stop-opacity="0.22"/>
<stop offset="0.348958" stop-color="#EAF4FF"/>
<stop offset="0.604167" stop-color="white"/>
<stop offset="0.90625" stop-color="#725BFF" stop-opacity="0.46"/>
</linearGradient>
<clipPath id="clip0_441_9412">
<rect width="496" height="145" fill="white"/>
</clipPath>
</defs>
</svg>
